0
SECTION
2
HEADER
9
$INSUNITS
70
4
9
$ACADVER
1
AC1014
9
$HANDSEED
5
FFFF
0
ENDSEC
0
SECTION
2
TABLES
0
TABLE
2
VPORT
5
8
100
AcDbSymbolTable
0
ENDTAB
0
TABLE
2
LTYPE
5
5
100
AcDbSymbolTable
0
LTYPE
5
14
100
AcDbSymbolTableRecord
100
AcDbLinetypeTableRecord
2
BYBLOCK
70
0
0
LTYPE
5
15
100
AcDbSymbolTableRecord
100
AcDbLinetypeTableRecord
2
BYLAYER
70
0
0
LTYPE
5
16
100
AcDbSymbolTableRecord
100
AcDbLinetypeTableRecord
2
DASHED
70
0
3
Dashed __ __ __ __ __ __ __ __ __ __ __ __ __ _
72
65
73
2
40
0.75
49
0.5
74
0
49
-0.25
74
0
0
ENDTAB
0
TABLE
2
LAYER
5
2
100
AcDbSymbolTable
70
3
0
LAYER
5
50
100
AcDbSymbolTableRecord
100
AcDbLayerTableRecord
2
1
70
0
62
7
6
DASHED
0
LAYER
5
51
100
AcDbSymbolTableRecord
100
AcDbLayerTableRecord
2
0
70
0
62
7
6
CONTINUOUS
0
ENDTAB
0
TABLE
2
STYLE
5
3
100
AcDbSymbolTable
70
1
0
STYLE
5
11
100
AcDbSymbolTableRecord
100
AcDbTextStyleTableRecord
2
STANDARD
70
0
0
ENDTAB
0
TABLE
2
VIEW
5
6
100
AcDbSymbolTable
70
0
0
ENDTAB
0
TABLE
2
UCS
5
7
100
AcDbSymbolTable
70
0
0
ENDTAB
0
TABLE
2
APPID
5
9
100
AcDbSymbolTable
70
2
0
APPID
5
12
100
AcDbSymbolTableRecord
100
AcDbRegAppTableRecord
2
ACAD
70
0
0
ENDTAB
0
TABLE
2
DIMSTYLE
5
A
100
AcDbSymbolTable
70
1
0
ENDTAB
0
TABLE
2
BLOCK_RECORD
5
1
100
AcDbSymbolTable
70
1
0
BLOCK_RECORD
5
1F
100
AcDbSymbolTableRecord
100
AcDbBlockTableRecord
2
*MODEL_SPACE
0
BLOCK_RECORD
5
1B
100
AcDbSymbolTableRecord
100
AcDbBlockTableRecord
2
*PAPER_SPACE
0
ENDTAB
0
ENDSEC
0
SECTION
2
BLOCKS
0
BLOCK
5
20
100
AcDbEntity
100
AcDbBlockBegin
2
*MODEL_SPACE
0
ENDBLK
5
21
100
AcDbEntity
100
AcDbBlockEnd
0
BLOCK
5
1C
100
AcDbEntity
100
AcDbBlockBegin
2
*PAPER_SPACE
0
ENDBLK
5
1D
100
AcDbEntity
100
AcDbBlockEnd
0
ENDSEC
0
SECTION
2
ENTITIES
0
POINT
5
100
100
AcDbEntity
8
0
100
AcDbPoint
10
29.268749999999997
20
-40.625000000000007
30
0
0
POINT
5
101
100
AcDbEntity
8
0
100
AcDbPoint
10
27.268749999999997
20
-54.625000000000014
30
0
0
POINT
5
102
100
AcDbEntity
8
0
100
AcDbPoint
10
14.287500000000005
20
-66.674999999999983
30
0
0
POINT
5
103
100
AcDbEntity
8
0
100
AcDbPoint
10
38.100000000000009
20
-66.674999999999983
30
0
0
POINT
5
104
100
AcDbEntity
8
0
100
AcDbPoint
10
195.26250000000002
20
-66.674999999999983
30
0
0
POINT
5
105
100
AcDbEntity
8
0
100
AcDbPoint
10
171.44999999999999
20
-66.674999999999983
30
0
0
LINE
5
106
100
AcDbEntity
8
0
100
AcDbLine
10
9.6687499999999993
20
-54.125000000000021
30
0
11
9.6687499999999993
21
-51.616347819385943
31
0
0
ARC
5
107
100
AcDbEntity
8
0
100
AcDbCircle
10
-10.168749999999992
20
-41.124999999999986
30
0
40
0.49999999999999489
210
-0
220
0
230
-1
100
AcDbArc
50
0
51
90.00000000000081
0
LINE
5
108
100
AcDbEntity
8
0
100
AcDbLine
10
23.668749999999999
20
-41.125000000000057
30
0
11
23.668749999999985
21
-54.125000000000021
31
0
0
LINE
5
109
100
AcDbEntity
8
0
100
AcDbLine
10
9.6687499999999869
20
-43.616347819385922
30
0
11
9.6687499999999975
21
-41.125000000000007
31
0
0
ARC
5
110
100
AcDbEntity
8
0
100
AcDbCircle
10
-23.16875000000001
20
-54.125000000000028
30
0
40
0.49999999999997602
210
0
220
0
230
-1
100
AcDbArc
50
180
51
270.00000000000119
0
ARC
5
111
100
AcDbEntity
8
0
100
AcDbCircle
10
-10.168749999999998
20
-54.125000000000021
30
0
40
0.49999999999999822
210
0
220
-0
230
-1
100
AcDbArc
50
-90.000000000001009
51
0
0
LINE
5
112
100
AcDbEntity
8
0
100
AcDbLine
10
23.168749999999999
20
-54.625
30
0
11
10.168750000000006
21
-54.625000000000021
31
0
0
CIRCLE
5
113
100
AcDbEntity
8
0
100
AcDbCircle
10
2.2660000000000013
20
-66.384000000000015
30
0
40
1.1499999999999997
210
0
220
0
230
1
0
CIRCLE
5
114
100
AcDbEntity
8
0
100
AcDbCircle
10
207.28437500000001
20
-66.384000000000015
30
0
40
1.1499999999999844
210
0
220
0
230
1
0
CIRCLE
5
115
100
AcDbEntity
8
0
100
AcDbCircle
10
190.5
20
-2.5250000000000004
30
0
40
1.1500000000000199
210
0
220
0
230
1
0
CIRCLE
5
116
100
AcDbEntity
8
0
100
AcDbCircle
10
19.050000000000004
20
-2.5250000000000004
30
0
40
1.1499999999999999
210
0
220
0
230
1
0
LWPOLYLINE
5
117
100
AcDbEntity
8
0
100
AcDbPolyline
90
72
70
1
43
0.0
10
53.65000000000002
20
-59.175000000000004
10
53.65000000000002
20
-58.17499999999999
42
-0.41421356237311063
10
54.149999999999999
20
-57.674999999999983
10
60.150000000000013
20
-57.67499999999999
42
-0.41421356237309509
10
60.650000000000013
20
-58.17499999999999
10
60.650000000000013
20
-59.175000000000011
42
0.41421356237307944
10
61.15000000000002
20
-59.675000000000011
10
69.787000000000006
20
-59.675000000000011
42
0.41421356237311585
10
70.286999999999992
20
-59.175000000000004
10
70.286999999999992
20
-58.17499999999999
42
-0.41421356237313145
10
70.786999999999978
20
-57.674999999999983
10
76.786999999999978
20
-57.674999999999983
42
-0.41421356237311585
10
77.287000000000006
20
-58.17499999999999
10
77.287000000000006
20
-59.175000000000011
42
0.41421356237308465
10
77.787000000000006
20
-59.675000000000011
10
81.72499999999998
20
-59.675000000000011
42
0.41421356237312101
10
82.224999999999966
20
-59.175000000000004
10
82.22499999999998
20
-58.17499999999999
42
-0.41421356237305862
10
82.724999999999994
20
-57.674999999999976
10
88.725000000000023
20
-57.674999999999997
42
-0.41421356237311585
10
89.22499999999998
20
-58.17499999999999
10
89.22499999999998
20
-59.175000000000011
42
0.4142135623730534
10
89.72499999999998
20
-59.675000000000011
10
91.25
20
-59.675000000000011
42
0.4142135623731002
10
91.75
20
-59.175000000000004
10
91.75
20
-58.17499999999999
42
-0.41421356237304296
10
92.25
20
-57.674999999999983
10
100.66299999999998
20
-57.674999999999983
42
-0.41421356237310542
10
101.16300000000001
20
-58.17499999999999
10
101.16300000000001
20
-59.175000000000011
42
0.41421356237305862
10
101.663
20
-59.675000000000011
10
107.887
20
-59.675000000000011
42
0.41421356237305862
10
108.387
20
-59.175000000000004
10
108.38700000000001
20
-58.17499999999999
42
-0.41421356237312629
10
108.887
20
-57.674999999999983
10
117.30000000000001
20
-57.674999999999983
42
-0.4142135623731002
10
117.80000000000001
20
-58.17499999999999
10
117.80000000000001
20
-59.175000000000011
42
0.41421356237306384
10
118.3
20
-59.675000000000011
10
119.82500000000002
20
-59.675000000000011
42
0.4142135623730378
10
120.325
20
-59.175000000000004
10
120.32500000000002
20
-58.17499999999999
42
-0.41421356237308982
10
120.82500000000003
20
-57.67499999999999
10
126.82500000000003
20
-57.674999999999983
42
-0.41421356237311063
10
127.32500000000002
20
-58.17499999999999
10
127.32500000000002
20
-59.175000000000011
42
0.41421356237308465
10
127.82500000000002
20
-59.675000000000004
10
131.76300000000001
20
-59.675000000000011
42
0.4142135623731471
10
132.26300000000003
20
-59.175000000000004
10
132.26300000000003
20
-58.17499999999999
42
-0.41421356237305862
10
132.76299999999998
20
-57.67499999999999
10
138.76300000000001
20
-57.674999999999983
42
-0.4142135623731002
10
139.26300000000001
20
-58.17499999999999
10
139.26300000000001
20
-59.175000000000011
42
0.4142135623731002
10
139.76300000000003
20
-59.675000000000011
10
148.40000000000001
20
-59.675000000000011
42
0.4142135623731471
10
148.90000000000001
20
-59.175000000000004
10
148.90000000000001
20
-58.17499999999999
42
-0.4142135623731002
10
149.40000000000001
20
-57.674999999999983
10
155.39999999999995
20
-57.674999999999983
42
-0.4142135623730534
10
155.90000000000001
20
-58.17499999999999
10
155.90000000000001
20
-59.175000000000011
42
0.41421356237305862
10
156.40000000000001
20
-59.675000000000011
10
158.90000000000001
20
-59.674999999999976
42
-0.4142135623731002
10
159.40000000000001
20
-60.174999999999983
10
159.40000000000001
20
-73.174999999999983
42
-0.41421356237311585
10
158.90000000000001
20
-73.674999999999983
10
50.650000000000013
20
-73.674999999999983
42
-0.41421356237310542
10
50.150000000000013
20
-73.174999999999983
10
50.150000000000034
20
-60.174999999999983
42
-0.41421356237308982
10
50.650000000000013
20
-59.675000000000011
10
53.150000000000013
20
-59.675000000000011
42
0.41421356237311585
0
LWPOLYLINE
5
118
100
AcDbEntity
8
0
100
AcDbPolyline
90
8
70
1
43
0.0
10
2.5249999999999906
20
-3.0250000000000021
10
2.5249999999999995
20
-16.024999999999991
42
0.4142135623730957
10
3.0250000000000021
20
-16.524999999999999
10
16.024999999999999
20
-16.524999999999999
42
0.41421356237309892
10
16.525000000000013
20
-16.024999999999991
10
16.524999999999999
20
-3.0250000000000021
42
0.41421356237309148
10
16.025000000000006
20
-2.5250000000000039
10
3.0249999999999977
20
-2.524999999999995
42
0.41421356237309437
0
LWPOLYLINE
5
119
100
AcDbEntity
8
0
100
AcDbPolyline
90
8
70
1
43
0.0
10
45.887500000000003
20
-21.574999999999992
42
0.41421356237309243
10
45.387500000000003
20
-22.074999999999999
10
45.387500000000003
20
-35.075000000000003
42
0.41421356237309509
10
45.887499999999989
20
-35.57500000000001
10
58.887500000000017
20
-35.57500000000001
42
0.41421356237309509
10
59.387500000000003
20
-35.075000000000003
10
59.387500000000003
20
-22.074999999999999
42
0.4142135623731002
10
58.88750000000001
20
-21.574999999999992
0
LWPOLYLINE
5
120
100
AcDbEntity
8
0
100
AcDbPolyline
90
8
70
1
43
0.0
10
207.02500000000003
20
-3.0250000000000021
42
0.41421356237312629
10
206.52500000000003
20
-2.5250000000000128
10
193.52500000000006
20
-2.524999999999995
42
0.41421356237302315
10
193.02500000000009
20
-3.0250000000000021
10
193.02500000000006
20
-16.024999999999991
42
0.41421356237314311
10
193.52500000000006
20
-16.525000000000009
10
206.52500000000003
20
-16.524999999999999
42
0.41421356237302348
10
207.02500000000001
20
-16.024999999999991
0
LWPOLYLINE
5
121
100
AcDbEntity
8
0
100
AcDbPolyline
90
8
70
1
43
0.0
10
168.92500000000001
20
-16.024999999999991
10
168.92500000000001
20
-3.0250000000000021
42
0.41421356237312629
10
168.42500000000001
20
-2.5250000000000128
10
155.42500000000001
20
-2.524999999999995
42
0.41421356237305795
10
154.92500000000001
20
-3.0250000000000021
10
154.92500000000001
20
-16.025000000000006
42
0.414213562373069
10
155.42500000000001
20
-16.524999999999999
10
168.42500000000001
20
-16.524999999999999
42
0.41421356237302348
0
LWPOLYLINE
5
122
100
AcDbEntity
8
0
100
AcDbPolyline
90
8
70
1
43
0.0
10
173.97500000000005
20
-16.024999999999991
10
173.97500000000005
20
-3.0250000000000021
42
-0.41421356237314377
10
174.47500000000005
20
-2.5249999999999826
10
187.47499999999999
20
-2.5250000000000017
42
-0.41421356237314155
10
187.97499999999999
20
-3.0250000000000021
10
187.97499999999999
20
-16.025000000000006
42
-0.41421356237304435
10
187.47499999999999
20
-16.524999999999999
10
174.47500000000005
20
-16.524999999999995
42
-0.41421356237302087
0
LWPOLYLINE
5
123
100
AcDbEntity
8
0
100
AcDbPolyline
90
8
70
1
43
0.0
10
135.875
20
-16.025000000000006
42
0.41421356237305862
10
136.375
20
-16.525000000000006
10
149.375
20
-16.524999999999999
42
0.41421356237310802
10
149.875
20
-16.025000000000006
10
149.875
20
-3.0250000000000021
42
0.41421356237309437
10
149.375
20
-2.524999999999995
10
136.375
20
-2.524999999999995
42
0.41421356237305795
10
135.875
20
-3.0250000000000021
0
LWPOLYLINE
5
124
100
AcDbEntity
8
0
100
AcDbPolyline
90
8
70
1
43
0.0
10
102.53750000000004
20
-22.074999999999999
10
102.53749999999999
20
-35.075000000000003
42
0.41421356237309243
10
103.03750000000001
20
-35.57500000000001
10
116.03749999999999
20
-35.57500000000001
42
0.41421356237305862
10
116.53750000000001
20
-35.075000000000003
10
116.53750000000001
20
-22.074999999999999
42
0.41421356237305079
10
116.03749999999999
20
-21.574999999999992
10
103.03750000000001
20
-21.57500000000001
42
0.41421356237308982
0
LWPOLYLINE
5
125
100
AcDbEntity
8
0
100
AcDbPolyline
90
8
70
1
43
0.0
10
96.987500000000011
20
-35.574999999999989
42
0.41421356237310542
10
97.487500000000011
20
-35.075000000000003
10
97.487500000000011
20
-22.074999999999999
42
0.41421356237309509
10
96.987500000000011
20
-21.574999999999992
10
83.987499999999983
20
-21.57500000000001
42
0.41421356237308982
10
83.487500000000026
20
-22.074999999999999
10
83.487500000000026
20
-35.075000000000003
42
0.41421356237312101
10
83.987499999999983
20
-35.574999999999989
0
ARC
5
126
100
AcDbEntity
8
0
100
AcDbCircle
10
-5.4062500000000036
20
-22.075000000000003
30
0
40
0.5000000000000121
210
0
220
0
230
-1
100
AcDbArc
50
0
51
89.999999999999588
0
LINE
5
127
100
AcDbEntity
8
0
100
AcDbLine
10
5.40625
20
-21.574999999999992
30
0
11
18.406250000000007
21
-21.575000000000003
31
0
0
ARC
5
128
100
AcDbEntity
8
0
100
AcDbCircle
10
-5.4062499999999964
20
-35.07500000000001
30
0
40
0.49999999999999822
210
0
220
-0
230
-1
100
AcDbArc
50
-90.000000000000924
51
0
0
LINE
5
129
100
AcDbEntity
8
0
100
AcDbLine
10
18.90625
20
-22.074999999999999
30
0
11
18.906249999999996
21
-35.07500000000001
31
0
0
ARC
5
130
100
AcDbEntity
8
0
100
AcDbCircle
10
-18.406250000000007
20
-22.074999999999996
30
0
40
0.49999999999999378
210
0
220
0
230
-1
100
AcDbArc
50
90
51
180
0
LINE
5
131
100
AcDbEntity
8
0
100
AcDbLine
10
4.9062499999999982
20
-35.075000000000003
30
0
11
4.9062499999999911
21
-22.074999999999999
31
0
0
LWPOLYLINE
5
132
100
AcDbEntity
8
0
100
AcDbPolyline
90
8
70
1
43
0.0
10
160.1875
20
-35.57500000000001
42
-0.41421356237309243
10
159.6875
20
-35.075000000000003
10
159.6875
20
-22.074999999999999
42
-0.41421356237309509
10
160.1875
20
-21.574999999999992
10
173.1875
20
-21.574999999999985
42
-0.41421356237310281
10
173.68750000000003
20
-22.074999999999999
10
173.68750000000003
20
-35.075000000000003
42
-0.41421356237304818
10
173.1875
20
-35.574999999999989
0
LINE
5
133
100
AcDbEntity
8
0
100
AcDbLine
10
36.362499999999997
20
-54.625000000000021
30
0
11
49.362500000000004
21
-54.625
31
0
0
ARC
5
134
100
AcDbEntity
8
0
100
AcDbCircle
10
49.362499999999976
20
-54.124999999999979
30
0
40
0.50000000000002487
210
-0
220
0
230
1
100
AcDbArc
50
270.00000000000324
51
360
0
ARC
5
135
100
AcDbEntity
8
0
100
AcDbCircle
10
49.362500000000018
20
-41.124999999999986
30
0
40
0.49999999999998046
210
-0
220
0
230
1
100
AcDbArc
50
0
51
90.000000000001634
0
LINE
5
136
100
AcDbEntity
8
0
100
AcDbLine
10
49.862499999999997
20
-54.125000000000021
30
0
11
49.862499999999997
21
-41.125000000000007
31
0
0
LINE
5
137
100
AcDbEntity
8
0
100
AcDbLine
10
35.862499999999997
20
-41.125000000000014
30
0
11
35.862499999999997
21
-54.125000000000021
31
0
0
ARC
5
138
100
AcDbEntity
8
0
100
AcDbCircle
10
36.362500000000004
20
-54.125000000000014
30
0
40
0.50000000000000711
210
0
220
0
230
1
100
AcDbArc
50
180
51
269.9999999999992
0
LWPOLYLINE
5
139
100
AcDbEntity
8
0
100
AcDbPolyline
90
8
70
1
43
0.0
10
140.63749999999999
20
-22.074999999999999
42
-0.41421356237309509
10
141.13749999999999
20
-21.574999999999992
10
154.13749999999999
20
-21.574999999999992
42
-0.41421356237307683
10
154.63750000000005
20
-22.074999999999999
10
154.63749999999999
20
-35.075000000000003
42
-0.41421356237313406
10
154.13749999999999
20
-35.574999999999989
10
141.13749999999999
20
-35.57500000000001
42
-0.41421356237309243
10
140.63749999999999
20
-35.075000000000003
0
LWPOLYLINE
5
140
100
AcDbEntity
8
0
100
AcDbPolyline
90
8
70
1
43
0.0
10
135.08750000000001
20
-35.574999999999989
42
0.41421356237308465
10
135.58750000000001
20
-35.075000000000003
10
135.58750000000001
20
-22.074999999999999
42
0.41421356237305079
10
135.08750000000001
20
-21.574999999999992
10
122.08750000000002
20
-21.57500000000001
42
0.41421356237308982
10
121.58750000000005
20
-22.074999999999999
10
121.58750000000001
20
-35.075000000000003
42
0.41421356237309243
10
122.08750000000002
20
-35.575000000000003
0
LWPOLYLINE
5
141
100
AcDbEntity
8
0
100
AcDbPolyline
90
8
70
1
43
0.0
10
185.88125000000002
20
-22.074999999999999
10
185.88125000000002
20
-35.075000000000003
42
0.41421356237310542
10
186.38124999999999
20
-35.57500000000001
10
199.38124999999999
20
-35.57500000000001
42
0.4142135623731002
10
199.88124999999999
20
-35.075000000000003
10
199.88124999999999
20
-22.074999999999999
42
0.41421356237312629
10
199.38124999999999
20
-21.57500000000001
10
186.38124999999999
20
-21.574999999999992
42
0.41421356237310802
0
LWPOLYLINE
5
142
100
AcDbEntity
8
0
100
AcDbPolyline
90
8
70
1
43
0.0
10
93.012500000000017
20
-54.125000000000021
42
0.41421356237311585
10
93.512500000000003
20
-54.625000000000014
10
106.51250000000003
20
-54.625
42
0.41421356237311585
10
107.01250000000002
20
-54.125000000000021
10
107.01250000000002
20
-41.125000000000007
42
0.41421356237309509
10
106.51250000000003
20
-40.624999999999993
10
93.512500000000003
20
-40.625
42
0.41421356237305862
10
93.012499999999989
20
-41.125000000000007
0
LWPOLYLINE
5
143
100
AcDbEntity
8
0
100
AcDbPolyline
90
8
70
1
43
0.0
10
150.16249999999999
20
-54.125000000000021
42
0.41421356237308982
10
150.66249999999999
20
-54.625000000000021
10
163.66250000000005
20
-54.625
42
0.41421356237304296
10
164.16249999999997
20
-54.125000000000021
10
164.16250000000005
20
-41.125000000000007
42
0.41421356237313667
10
163.66250000000005
20
-40.625
10
150.66249999999999
20
-40.625
42
0.4142135623731002
10
150.16249999999999
20
-41.125000000000007
0
LWPOLYLINE
5
144
100
AcDbEntity
8
0
100
AcDbPolyline
90
8
70
1
43
0.0
10
68.412500000000009
20
-40.625
10
55.412500000000016
20
-40.625
42
0.41421356237311585
10
54.912500000000009
20
-41.125000000000007
10
54.912500000000009
20
-54.125000000000021
42
0.41421356237309509
10
55.412500000000009
20
-54.625000000000021
10
68.412499999999994
20
-54.625000000000021
42
0.41421356237312101
10
68.912500000000009
20
-54.125000000000021
10
68.912499999999994
20
-41.125000000000007
42
0.41421356237309509
0
LWPOLYLINE
5
145
100
AcDbEntity
8
0
100
AcDbPolyline
90
8
70
1
43
0.0
10
201.76249999999999
20
-59.674999999999983
10
188.76249999999999
20
-59.675000000000011
42
0.4142135623730378
10
188.26249999999999
20
-60.174999999999983
10
188.26249999999999
20
-73.174999999999983
42
0.41421356237316265
10
188.76249999999999
20
-73.674999999999983
10
201.76249999999999
20
-73.674999999999983
42
0.41421356237317303
10
202.26249999999999
20
-73.174999999999983
10
202.26249999999999
20
-60.174999999999983
42
0.41421356237313145
0
LWPOLYLINE
5
146
100
AcDbEntity
8
0
100
AcDbPolyline
90
8
70
1
43
0.0
10
204.64375000000004
20
-41.125000000000007
42
0.41421356237307944
10
204.14375000000007
20
-40.624999999999993
10
191.14375000000001
20
-40.625
42
0.41421356237301699
10
190.64375000000001
20
-41.125000000000007
10
190.64375000000001
20
-54.125000000000021
42
0.41421356237315743
10
191.14375000000001
20
-54.625000000000021
10
204.14375000000007
20
-54.625
42
0.41421356237306384
10
204.64375000000004
20
-54.125000000000021
0
LWPOLYLINE
5
147
100
AcDbEntity
8
0
100
AcDbPolyline
90
8
70
1
43
0.0
10
112.0625
20
-54.125000000000021
42
0.41421356237308982
10
112.56250000000001
20
-54.625000000000021
10
125.5625
20
-54.625
42
0.41421356237308465
10
126.0625
20
-54.125000000000021
10
126.06250000000001
20
-41.125000000000007
42
0.41421356237305862
10
125.5625
20
-40.625
10
112.56250000000001
20
-40.625
42
0.4142135623731002
10
112.0625
20
-41.125000000000007
0
LWPOLYLINE
5
148
100
AcDbEntity
8
0
100
AcDbPolyline
90
8
70
1
43
0.0
10
169.21250000000001
20
-41.125000000000007
10
169.21250000000001
20
-54.125000000000021
42
0.41421356237313145
10
169.71250000000001
20
-54.625000000000021
10
182.71250000000006
20
-54.625000000000021
42
0.41421356237310542
10
183.21250000000003
20
-54.125000000000021
10
183.21250000000003
20
-41.125000000000007
42
0.41421356237311063
10
182.71250000000006
20
-40.625
10
169.71250000000001
20
-40.625
42
0.41421356237321988
0
LWPOLYLINE
5
149
100
AcDbEntity
8
0
100
AcDbPolyline
90
8
70
1
43
0.0
10
7.787500000000005
20
-73.674999999999983
10
20.787500000000001
20
-73.674999999999983
42
0.41421356237308465
10
21.287500000000019
20
-73.174999999999983
10
21.287500000000001
20
-60.174999999999983
42
0.41421356237309243
10
20.787500000000009
20
-59.674999999999983
10
7.7875000000000005
20
-59.675000000000011
42
0.41421356237309692
10
7.2875000000000254
20
-60.174999999999983
10
7.2874999999999988
20
-73.174999999999983
42
0.41421356237309892
0
LWPOLYLINE
5
150
100
AcDbEntity
8
0
100
AcDbPolyline
90
8
70
1
43
0.0
10
144.61250000000001
20
-54.625000000000021
42
0.4142135623730534
10
145.11250000000001
20
-54.125000000000021
10
145.11250000000001
20
-41.125000000000007
42
0.41421356237305862
10
144.61250000000001
20
-40.624999999999993
10
131.61250000000001
20
-40.625
42
0.4142135623731002
10
131.11250000000001
20
-41.125000000000007
10
131.11250000000001
20
-54.125000000000021
42
0.41421356237308982
10
131.61250000000001
20
-54.625000000000021
0
LWPOLYLINE
5
151
100
AcDbEntity
8
0
100
AcDbPolyline
90
8
70
1
43
0.0
10
87.46250000000002
20
-54.625000000000021
42
0.4142135623730534
10
87.962500000000006
20
-54.125000000000021
10
87.96250000000002
20
-41.125000000000007
42
0.41421356237305862
10
87.46250000000002
20
-40.624999999999993
10
74.462500000000006
20
-40.625
42
0.41421356237313145
10
73.962500000000006
20
-41.125000000000007
10
73.962500000000006
20
-54.125000000000021
42
0.41421356237309509
10
74.462500000000006
20
-54.625000000000021
0
LWPOLYLINE
5
152
100
AcDbEntity
8
0
100
AcDbPolyline
90
8
70
1
43
0.0
10
79.22499999999998
20
-2.524999999999995
10
92.224999999999994
20
-2.5250000000000137
42
-0.41421356237306967
10
92.724999999999994
20
-3.0250000000000021
10
92.725000000000023
20
-16.024999999999991
42
-0.41421356237308854
10
92.224999999999994
20
-16.524999999999999
10
79.22499999999998
20
-16.524999999999995
42
-0.41421356237308726
10
78.724999999999994
20
-16.024999999999991
10
78.724999999999994
20
-3.0250000000000021
42
-0.41421356237309825
0
LWPOLYLINE
5
153
100
AcDbEntity
8
0
100
AcDbPolyline
90
8
70
1
43
0.0
10
40.625
20
-3.0250000000000021
10
40.625
20
-16.025000000000006
42
0.41421356237307683
10
41.125
20
-16.524999999999991
10
54.125000000000014
20
-16.524999999999999
42
0.41421356237310542
10
54.625
20
-16.024999999999991
10
54.625
20
-3.0250000000000021
42
0.4142135623730967
10
54.125000000000007
20
-2.5250000000000039
10
41.125
20
-2.524999999999995
42
0.41421356237308826
0
LWPOLYLINE
5
154
100
AcDbEntity
8
0
100
AcDbPolyline
90
8
70
1
43
0.0
10
59.675000000000004
20
-3.0250000000000021
10
59.675000000000004
20
-16.024999999999991
42
0.41421356237309509
10
60.174999999999997
20
-16.524999999999991
10
73.174999999999983
20
-16.524999999999999
42
0.41421356237308593
10
73.67500000000004
20
-16.025000000000006
10
73.674999999999983
20
-3.0250000000000021
42
0.41421356237308854
10
73.175000000000026
20
-2.524999999999995
10
60.174999999999997
20
-2.524999999999995
42
0.41421356237312168
0
LWPOLYLINE
5
155
100
AcDbEntity
8
0
100
AcDbPolyline
90
8
70
1
43
0.0
10
98.275000000000006
20
-16.524999999999981
10
111.27500000000001
20
-16.524999999999999
42
0.41421356237310802
10
111.77500000000002
20
-16.025000000000006
10
111.77500000000002
20
-3.0250000000000021
42
0.41421356237309437
10
111.27500000000001
20
-2.524999999999995
10
98.275000000000006
20
-2.524999999999995
42
0.41421356237310281
10
97.77500000000002
20
-3.0250000000000021
10
97.775000000000034
20
-16.025000000000006
42
0.4142135623730937
0
LWPOLYLINE
5
156
100
AcDbEntity
8
0
100
AcDbPolyline
90
8
70
1
43
0.0
10
130.32499999999999
20
-2.524999999999995
10
117.32500000000002
20
-2.524999999999995
42
0.41421356237310281
10
116.82500000000003
20
-3.0250000000000021
10
116.82500000000003
20
-16.024999999999991
42
0.41421356237311846
10
117.32500000000002
20
-16.524999999999999
10
130.32499999999999
20
-16.524999999999999
42
0.41421356237309637
10
130.82499999999999
20
-16.024999999999991
10
130.82499999999999
20
-3.0250000000000021
42
0.41421356237309437
0
LWPOLYLINE
5
157
100
AcDbEntity
8
0
100
AcDbPolyline
90
8
70
1
43
0.0
10
64.9375
20
-35.57500000000001
10
77.9375
20
-35.57500000000001
42
0.41421356237308982
10
78.4375
20
-35.075000000000003
10
78.4375
20
-22.074999999999999
42
0.41421356237309243
10
77.9375
20
-21.574999999999992
10
64.9375
20
-21.574999999999992
42
0.41421356237308982
10
64.437499999999986
20
-22.074999999999999
10
64.4375
20
-35.075000000000003
42
0.41421356237308982
0
ARC
5
158
100
AcDbEntity
8
0
100
AcDbCircle
10
26.837500000000002
20
-22.074999999999999
30
0
40
0.50000000000000711
210
0
220
0
230
1
100
AcDbArc
50
90.000000000000398
51
180
0
LINE
5
159
100
AcDbEntity
8
0
100
AcDbLine
10
40.337499999999991
20
-35.075000000000003
30
0
11
40.337500000000013
21
-22.074999999999999
31
0
0
LINE
5
160
100
AcDbEntity
8
0
100
AcDbLine
10
26.337499999999995
20
-22.074999999999999
30
0
11
26.337499999999974
21
-35.07500000000001
31
0
0
ARC
5
161
100
AcDbEntity
8
0
100
AcDbCircle
10
39.837500000000013
20
-22.074999999999992
30
0
40
0.49999999999999822
210
-0
220
0
230
1
100
AcDbArc
50
0
51
90
0
LINE
5
162
100
AcDbEntity
8
0
100
AcDbLine
10
39.837500000000013
20
-21.574999999999992
30
0
11
35.074999999999989
21
-21.574999999999992
31
0
0
ARC
5
163
100
AcDbEntity
8
0
100
AcDbCircle
10
39.837499999999999
20
-35.075000000000003
30
0
40
0.49999999999998934
210
-0
220
0
230
1
100
AcDbArc
50
-90
51
0
0
LINE
5
164
100
AcDbEntity
8
0
100
AcDbLine
10
35.075000000000003
20
-2.5250000000000035
30
0
11
22.074999999999999
21
-2.524999999999995
31
0
0
LINE
5
165
100
AcDbEntity
8
0
100
AcDbLine
10
35.574999999999989
20
-16.024999999999991
30
0
11
35.57500000000001
21
-3.0250000000000021
31
0
0
ARC
5
166
100
AcDbEntity
8
0
100
AcDbCircle
10
35.07500000000001
20
-3.0250000000000048
30
0
40
0.50000000000000266
210
0
220
-0
230
1
100
AcDbArc
50
0
51
90.00000000000081
0
ARC
5
167
100
AcDbEntity
8
0
100
AcDbCircle
10
22.07500000000001
20
-16.024999999999995
30
0
40
0.50000000000000266
210
0
220
0
230
1
100
AcDbArc
50
180
51
269.99999999999835
0
ARC
5
168
100
AcDbEntity
8
0
100
AcDbCircle
10
22.074999999999999
20
-3.0250000000000044
30
0
40
0.50000000000000933
210
0
220
-0
230
1
100
AcDbArc
50
90
51
180
0
LINE
5
169
100
AcDbEntity
8
0
100
AcDbLine
10
21.574999999999989
20
-3.0250000000000021
30
0
11
21.575000000000006
21
-16.024999999999991
31
0
0
ARC
5
170
100
AcDbEntity
8
0
100
AcDbCircle
10
35.074999999999989
20
-16.024999999999995
30
0
40
0.50000000000000488
210
-0
220
0
230
1
100
AcDbArc
50
-89.99999999999838
51
0
0
LWPOLYLINE
5
171
100
AcDbEntity
8
0
100
AcDbPolyline
90
12
70
1
43
0.0
10
-0.12500000000000067
20
-2.5250000000000035
10
-0.12500000000000205
20
-74.075000000000017
42
0.41421356237309553
10
2.125000000000004
20
-76.325000000000031
10
26.45000000000001
20
-76.325000000000017
10
49.750000000000007
20
-76.325000000000017
10
159.80000000000004
20
-76.325000000000017
10
183.09999999999999
20
-76.325000000000045
10
207.42500000000004
20
-76.325000000000017
42
0.41421356237310086
10
209.67499999999998
20
-74.075000000000017
10
209.67500000000001
20
-2.524999999999995
42
0.41421356237309309
10
207.02500000000001
20
0.12499999999999289
10
2.5250000000000128
20
0.12500000000000067
42
0.4142135623730967
0
LWPOLYLINE
5
172
100
AcDbEntity
8
0
100
AcDbPolyline
90
8
70
1
43
0.0
10
44.600000000000009
20
-59.674999999999983
10
31.600000000000001
20
-59.674999999999983
42
0.41421356237309509
10
31.100000000000001
20
-60.174999999999983
10
31.099999999999998
20
-73.174999999999983
42
0.41421356237309759
10
31.600000000000001
20
-73.674999999999983
10
44.600000000000009
20
-73.674999999999983
42
0.41421356237309509
10
45.100000000000009
20
-73.174999999999983
10
45.100000000000009
20
-60.174999999999983
42
0.41421356237309509
0
LWPOLYLINE
5
173
100
AcDbEntity
8
0
100
AcDbPolyline
90
8
70
1
43
0.0
10
177.94999999999999
20
-59.674999999999983
10
164.95000000000002
20
-59.674999999999983
42
0.41421356237309509
10
164.44999999999999
20
-60.174999999999983
10
164.44999999999999
20
-73.174999999999983
42
0.41421356237313145
10
164.95000000000002
20
-73.674999999999983
10
177.94999999999999
20
-73.674999999999983
42
0.41421356237309509
10
178.44999999999999
20
-73.174999999999983
10
178.44999999999999
20
-60.174999999999983
42
0.41421356237309509
0
LINE
5
174
100
AcDbEntity
8
0
100
AcDbLine
10
34.574999999999989
20
-17.024999999999999
30
0
11
34.574999999999989
21
-21.074999999999996
31
0
0
LINE
5
175
100
AcDbEntity
8
0
100
AcDbLine
10
26.337499999999991
20
-17.024999999999999
30
0
11
26.337499999999988
21
-21.574999999999992
31
0
0
LINE
5
176
100
AcDbEntity
8
0
100
AcDbLine
10
26.337499999999988
20
-21.574999999999992
30
0
11
26.337499999999995
21
-22.074999999999999
31
0
0
LINE
5
177
100
AcDbEntity
8
0
100
AcDbLine
10
22.074999999999996
20
-16.524999999999995
30
0
11
25.837499999999991
21
-16.524999999999995
31
0
0
ARC
5
178
100
AcDbEntity
8
0
100
AcDbCircle
10
25.837499999999991
20
-17.024999999999999
30
0
40
0.49999999999999822
210
0
220
-0
230
1
100
AcDbArc
50
0
51
90
0
ARC
5
179
100
AcDbEntity
8
0
100
AcDbCircle
10
35.074999999999989
20
-21.074999999999996
30
0
40
0.49999999999999822
210
0
220
0
230
1
100
AcDbArc
50
180
51
270
0
ARC
5
180
100
AcDbEntity
8
0
100
AcDbCircle
10
35.074999999999982
20
-17.024999999999995
30
0
40
0.49999999999999378
210
0
220
-0
230
1
100
AcDbArc
50
89.99999999999919
51
180
0
LINE
5
181
100
AcDbEntity
8
0
100
AcDbLine
10
40.337499999999991
20
-35.075000000000003
30
0
11
40.337499999999991
21
-40.625
31
0
0
LINE
5
182
100
AcDbEntity
8
0
100
AcDbLine
10
19.406250000000004
20
-35.57500000000001
30
0
11
25.837499999999977
21
-35.57500000000001
31
0
0
ARC
5
183
100
AcDbEntity
8
0
100
AcDbCircle
10
19.40625
20
-35.07500000000001
30
0
40
0.50000000000000044
210
0
220
0
230
1
100
AcDbArc
50
180
51
270.0000000000004
0
ARC
5
184
100
AcDbEntity
8
0
100
AcDbCircle
10
25.837499999999977
20
-35.07500000000001
30
0
40
0.49999999999999822
210
-0
220
0
230
1
100
AcDbArc
50
-90
51
0
0
LINE
5
185
100
AcDbEntity
8
0
100
AcDbLine
10
5.4062500000000044
20
-35.57500000000001
30
0
11
11.368750000000016
21
-35.575000000000017
31
0
0
LINE
5
186
100
AcDbEntity
8
0
100
AcDbLine
10
11.86875000000002
20
-36.075000000000017
30
0
11
11.868750000000009
21
-40.125
31
0
0
LINE
5
187
100
AcDbEntity
8
0
100
AcDbLine
10
10.168749999999999
20
-40.624999999999993
30
0
11
11.368750000000006
21
-40.625
31
0
0
LINE
5
188
100
AcDbEntity
8
0
100
AcDbLine
10
40.337499999999991
20
-40.625
30
0
11
49.362500000000004
21
-40.625000000000007
31
0
0
LINE
5
189
100
AcDbEntity
8
0
100
AcDbLine
10
35.362499999999997
20
-40.625000000000014
30
0
11
24.168749999999996
21
-40.625000000000057
31
0
0
ARC
5
190
100
AcDbEntity
8
0
100
AcDbCircle
10
24.168749999999996
20
-41.125000000000057
30
0
40
0.50000000000000711
210
0
220
-0
230
1
100
AcDbArc
50
90
51
180
0
ARC
5
191
100
AcDbEntity
8
0
100
AcDbCircle
10
35.362499999999997
20
-41.125000000000014
30
0
40
0.49999999999999822
210
0
220
-0
230
1
100
AcDbArc
50
0
51
90
0
LINE
5
192
100
AcDbEntity
8
0
100
AcDbLine
10
9.6687499999999869
20
-43.616347819385922
30
0
11
9.6687499999999993
21
-51.616347819385943
31
0
0
ARC
5
193
100
AcDbEntity
8
0
100
AcDbCircle
10
11.368750000000016
20
-36.075000000000024
30
0
40
0.50000000000000266
210
0
220
-0
230
1
100
AcDbArc
50
0
51
90
0
ARC
5
194
100
AcDbEntity
8
0
100
AcDbCircle
10
11.368750000000007
20
-40.125
30
0
40
0.49999999999999822
210
0
220
0
230
1
100
AcDbArc
50
-90.000000000000199
51
0
0
ENDSEC
0
SECTION
2
OBJECTS
0
DICTIONARY
5
C
100
AcDbDictionary
3
ACAD_GROUP
350
D
3
ACAD_MLINESTYLE
350
17
0
DICTIONARY
5
D
100
AcDbDictionary
0
DICTIONARY
5
1A
330
C
100
AcDbDictionary
0
DICTIONARY
5
17
100
AcDbDictionary
0
ENDSEC
0
EOF
