0
SECTION
2
HEADER
9
$INSUNITS
70
4
9
$ACADVER
1
AC1014
9
$HANDSEED
5
FFFF
0
ENDSEC
0
SECTION
2
TABLES
0
TABLE
2
VPORT
5
8
100
AcDbSymbolTable
0
ENDTAB
0
TABLE
2
LTYPE
5
5
100
AcDbSymbolTable
0
LTYPE
5
14
100
AcDbSymbolTableRecord
100
AcDbLinetypeTableRecord
2
BYBLOCK
70
0
0
LTYPE
5
15
100
AcDbSymbolTableRecord
100
AcDbLinetypeTableRecord
2
BYLAYER
70
0
0
LTYPE
5
16
100
AcDbSymbolTableRecord
100
AcDbLinetypeTableRecord
2
DASHED
70
0
3
Dashed __ __ __ __ __ __ __ __ __ __ __ __ __ _
72
65
73
2
40
0.75
49
0.5
74
0
49
-0.25
74
0
0
ENDTAB
0
TABLE
2
LAYER
5
2
100
AcDbSymbolTable
70
3
0
LAYER
5
50
100
AcDbSymbolTableRecord
100
AcDbLayerTableRecord
2
1
70
0
62
7
6
DASHED
0
LAYER
5
51
100
AcDbSymbolTableRecord
100
AcDbLayerTableRecord
2
0
70
0
62
7
6
CONTINUOUS
0
ENDTAB
0
TABLE
2
STYLE
5
3
100
AcDbSymbolTable
70
1
0
STYLE
5
11
100
AcDbSymbolTableRecord
100
AcDbTextStyleTableRecord
2
STANDARD
70
0
0
ENDTAB
0
TABLE
2
VIEW
5
6
100
AcDbSymbolTable
70
0
0
ENDTAB
0
TABLE
2
UCS
5
7
100
AcDbSymbolTable
70
0
0
ENDTAB
0
TABLE
2
APPID
5
9
100
AcDbSymbolTable
70
2
0
APPID
5
12
100
AcDbSymbolTableRecord
100
AcDbRegAppTableRecord
2
ACAD
70
0
0
ENDTAB
0
TABLE
2
DIMSTYLE
5
A
100
AcDbSymbolTable
70
1
0
ENDTAB
0
TABLE
2
BLOCK_RECORD
5
1
100
AcDbSymbolTable
70
1
0
BLOCK_RECORD
5
1F
100
AcDbSymbolTableRecord
100
AcDbBlockTableRecord
2
*MODEL_SPACE
0
BLOCK_RECORD
5
1B
100
AcDbSymbolTableRecord
100
AcDbBlockTableRecord
2
*PAPER_SPACE
0
ENDTAB
0
ENDSEC
0
SECTION
2
BLOCKS
0
BLOCK
5
20
100
AcDbEntity
100
AcDbBlockBegin
2
*MODEL_SPACE
0
ENDBLK
5
21
100
AcDbEntity
100
AcDbBlockEnd
0
BLOCK
5
1C
100
AcDbEntity
100
AcDbBlockBegin
2
*PAPER_SPACE
0
ENDBLK
5
1D
100
AcDbEntity
100
AcDbBlockEnd
0
ENDSEC
0
SECTION
2
ENTITIES
0
ARC
5
100
100
AcDbEntity
8
0
100
AcDbCircle
10
52.463451885772798
20
171.97711375954901
30
0
40
3.0999999999999872
210
0
220
0
230
1
100
AcDbArc
50
180
51
270
0
LINE
5
101
100
AcDbEntity
8
0
100
AcDbLine
10
52.463451885772798
20
168.87711375954905
30
0
11
161.64821260776304
21
168.87711375954899
31
0
0
ARC
5
102
100
AcDbEntity
8
0
100
AcDbCircle
10
161.64821260776304
20
171.97711375954901
30
0
40
3.1000000000000227
210
0
220
0
230
1
100
AcDbArc
50
-90
51
0
0
LINE
5
103
100
AcDbEntity
8
0
100
AcDbLine
10
164.74821260776298
20
171.97711375954901
30
0
11
164.74821260776304
21
186.71993491974899
31
0
0
ARC
5
104
100
AcDbEntity
8
0
100
AcDbCircle
10
165.948212607763
20
186.71993491974899
30
0
40
1.2000000000000099
210
0
220
-0
230
1
100
AcDbArc
50
90
51
180
0
LINE
5
105
100
AcDbEntity
8
0
100
AcDbLine
10
165.948212607763
20
187.91993491974898
30
0
11
209.26993804832304
21
187.91993491974904
31
0
0
SPLINE
5
106
100
AcDbEntity
8
0
100
AcDbSpline
70
0
71
3
72
8
73
4
74
0
42
0.000000001
43
0.0000000001
44
0.0000000001
40
-1
40
-1
40
-1
40
-1
40
0
40
0
40
0
40
0
10
209.26993804832304
20
187.91993491974904
30
0
10
210.99789774619299
20
187.91993491974904
30
0
10
212.37321260776301
20
189.295249781319
30
0
10
212.37321260776301
20
191.02320947918901
30
0
0
LINE
5
107
100
AcDbEntity
8
0
100
AcDbLine
10
212.37321260776301
20
191.02320947918901
30
0
11
212.37321260776301
21
243.07358731706901
31
0
0
SPLINE
5
108
100
AcDbEntity
8
0
100
AcDbSpline
70
0
71
3
72
8
73
4
74
0
42
0.000000001
43
0.0000000001
44
0.0000000001
40
-1
40
-1
40
-1
40
-1
40
0
40
0
40
0
40
0
10
212.37321260776301
20
243.07358731706901
30
0
10
212.37321260776301
20
244.80154701493902
30
0
10
210.99789774619299
20
246.17686187650904
30
0
10
209.26993804832304
20
246.17686187650904
30
0
0
LINE
5
109
100
AcDbEntity
8
0
100
AcDbLine
10
209.26993804832304
20
246.17686187650904
30
0
11
4.841726445212835
21
246.17686187650904
31
0
0
SPLINE
5
110
100
AcDbEntity
8
0
100
AcDbSpline
70
0
71
3
72
8
73
4
74
0
42
0.000000001
43
0.0000000001
44
0.0000000001
40
-1
40
-1
40
-1
40
-1
40
0
40
0
40
0
40
0
10
4.8417264452128403
20
246.17686187650904
30
0
10
3.1137667473428405
20
246.17686187650904
30
0
10
1.7384518857728402
20
244.80154701493902
30
0
10
1.7384518857728402
20
243.07358731706901
30
0
0
LINE
5
111
100
AcDbEntity
8
0
100
AcDbLine
10
1.7384518857728404
20
243.07358731706901
30
0
11
1.7384518857728402
21
191.02320947918901
31
0
0
SPLINE
5
112
100
AcDbEntity
8
0
100
AcDbSpline
70
0
71
3
72
8
73
4
74
0
42
0.000000001
43
0.0000000001
44
0.0000000001
40
-1
40
-1
40
-1
40
-1
40
0
40
0
40
0
40
0
10
1.7384518857728402
20
191.02320947918901
30
0
10
1.7384518857728402
20
189.295249781319
30
0
10
3.1137667473428299
20
187.91993491974904
30
0
10
4.8417264452128403
20
187.91993491974904
30
0
0
LINE
5
113
100
AcDbEntity
8
0
100
AcDbLine
10
4.8417264452128403
20
187.91993491974904
30
0
11
48.163451885772801
21
187.91993491974904
31
0
0
ARC
5
114
100
AcDbEntity
8
0
100
AcDbCircle
10
48.163451885772801
20
186.71993491974899
30
0
40
1.2000000000000099
210
0
220
0
230
1
100
AcDbArc
50
0
51
90
0
LINE
5
115
100
AcDbEntity
8
0
100
AcDbLine
10
49.363451885772811
20
186.71993491974899
30
0
11
49.363451885772811
21
171.97711375954901
31
0
0
LWPOLYLINE
5
116
100
AcDbEntity
8
0
100
AcDbPolyline
90
8
70
1
43
0.0
10
5.3417264457678701
20
243.27358731651401
10
18.341726445767801
20
243.27358731651401
42
-0.41421356237309509
10
19.041726445767807
20
242.57358731651402
10
19.041726445767697
20
229.57358731651399
42
-0.41421356237309509
10
18.341726445767801
20
228.87358731651409
10
5.3417264457678604
20
228.87358731651403
42
-0.41421356237310347
10
4.6417264457678691
20
229.57358731651399
10
4.641726445767798
20
242.57358731651402
42
-0.41421356237312429
0
LWPOLYLINE
5
117
100
AcDbEntity
8
0
100
AcDbPolyline
90
47
70
1
43
0.0
10
37.391726445767901
20
228.87358731651398
42
0.41421356237299528
10
37.09172644576806
20
228.57358731651402
10
37.091726445767804
20
224.52358731651401
42
0.4142135623731904
10
37.391726445767901
20
224.223587316514
10
42.154226445767897
20
224.22358731651394
42
-0.41421356237309509
10
42.854226445767793
20
223.52358731651404
10
42.8542264457678
20
205.473587316514
42
0.41421356237309509
10
43.154226445767804
20
205.17358731651402
10
51.679226445767803
20
205.17358731651404
42
-0.41421356237309509
10
52.379226445767841
20
204.47358731651403
10
52.37922644576777
20
191.473587316514
42
-0.41421356237309509
10
51.679226445767803
20
190.77358731651404
10
38.679226445767902
20
190.77358731651401
42
-0.41421356237309509
10
37.979226445767893
20
191.473587316514
10
37.9792264457678
20
204.47358731651403
42
0.41421356237309509
10
37.679226445767803
20
204.77358731651404
10
26.485476445767905
20
204.77358731651404
42
0.41421356237299961
10
26.18547644576806
20
204.47358731651403
10
26.185476445767772
20
191.473587316514
42
-0.41421356237309509
10
25.485476445767805
20
190.77358731651404
10
12.4854764457678
20
190.77358731651401
42
-0.41421356237309509
10
11.785476445767793
20
191.473587316514
10
11.785476445767911
20
204.47358731651403
42
-0.41421356237313689
10
12.4854764457678
20
205.17358731651382
10
13.685476445767801
20
205.17358731651399
42
0.41421356237309509
10
13.985476445767812
20
205.473587316514
10
13.985476445767802
20
209.52358731651401
42
0.41421356237309509
10
13.685476445767801
20
209.82358731651399
10
7.7229764457678396
20
209.82358731651405
42
-0.41421356237309875
10
7.022976445767859
20
210.52358731651401
10
7.0229764457678678
20
223.52358731651404
42
-0.41421356237311646
10
7.7229764457678503
20
224.22358731651397
10
20.722976445767905
20
224.223587316514
42
-0.41421356237309509
10
21.422976445767876
20
223.52358731651404
10
21.422976445767802
20
210.52358731651401
42
0.41421356237309509
10
21.722976445767902
20
210.22358731651394
10
28.1542264457679
20
210.223587316514
42
0.41421356237309509
10
28.454226445767912
20
210.52358731651401
10
28.454226445767901
20
228.57358731651402
42
0.41421356237309509
10
28.1542264457679
20
228.873587316514
10
24.391726445767805
20
228.87358731651403
42
-0.41421356237309509
10
23.691726445767834
20
229.57358731651399
10
23.691726445767731
20
242.57358731651402
42
-0.41421356237309509
10
24.391726445767805
20
243.27358731651407
10
37.391726445767901
20
243.27358731651401
42
-0.41421356237309509
10
38.091726445767911
20
242.57358731651402
10
38.091726445767939
20
229.57358731651399
42
-0.41421356237309509
0
LWPOLYLINE
5
118
100
AcDbEntity
8
0
100
AcDbPolyline
90
8
70
1
43
0.0
10
76.191726445767799
20
242.57358731651402
10
76.191726445767657
20
229.57358731651399
42
-0.41421356237309509
10
75.491726445767796
20
228.87358731651415
10
62.49172644576781
20
228.87358731651403
42
-0.41421356237309509
10
61.791726445767843
20
229.57358731651399
10
61.791726445767843
20
242.57358731651402
42
-0.41421356237309509
10
62.49172644576781
20
243.27358731651398
10
75.491726445767796
20
243.27358731651401
42
-0.41421356237309509
0
LWPOLYLINE
5
119
100
AcDbEntity
8
0
100
AcDbPolyline
90
8
70
1
43
0.0
10
57.141726445767809
20
242.57358731651402
10
57.141726445767702
20
229.57358731651399
42
-0.41421356237309509
10
56.441726445767806
20
228.87358731651409
10
43.441726445767799
20
228.87358731651398
42
-0.41421356237309509
10
42.74172644576776
20
229.57358731651399
10
42.741726445767831
20
242.57358731651402
42
-0.41421356237309509
10
43.441726445767799
20
243.27358731651398
10
56.441726445767806
20
243.27358731651401
42
-0.41421356237309509
0
LWPOLYLINE
5
120
100
AcDbEntity
8
0
100
AcDbPolyline
90
8
70
1
43
0.0
10
95.241726445767796
20
242.57358731651402
10
95.241726445767725
20
229.57358731651399
42
-0.41421356237309509
10
94.541726445767793
20
228.87358731651406
10
81.541726445767807
20
228.873587316514
42
-0.41421356237309509
10
80.841726445767804
20
229.57358731651399
10
80.841726445767833
20
242.57358731651402
42
-0.41421356237309509
10
81.541726445767807
20
243.27358731651398
10
94.541726445767793
20
243.27358731651401
42
-0.41421356237309509
0
LWPOLYLINE
5
121
100
AcDbEntity
8
0
100
AcDbPolyline
90
8
70
1
43
0.0
10
133.34172644576799
20
242.57358731651402
10
133.3417264457679
20
229.57358731651399
42
-0.41421356237309509
10
132.641726445768
20
228.87358731651409
10
119.641726445768
20
228.87358731651403
42
-0.41421356237309509
10
118.94172644576804
20
229.57358731651399
10
118.94172644576804
20
242.57358731651402
42
-0.41421356237309509
10
119.641726445768
20
243.27358731651398
10
132.641726445768
20
243.27358731651401
42
-0.41421356237309509
0
LWPOLYLINE
5
122
100
AcDbEntity
8
0
100
AcDbPolyline
90
8
70
1
43
0.0
10
114.29172644576802
20
242.57358731651402
10
114.29172644576788
20
229.57358731651399
42
-0.41421356237309509
10
113.59172644576802
20
228.87358731651415
10
100.59172644576802
20
228.873587316514
42
-0.41421356237309509
10
99.891726445768001
20
229.57358731651399
10
99.891726445768001
20
242.57358731651402
42
-0.41421356237309509
10
100.59172644576802
20
243.27358731651401
10
113.59172644576802
20
243.27358731651401
42
-0.41421356237309509
0
LWPOLYLINE
5
123
100
AcDbEntity
8
0
100
AcDbPolyline
90
8
70
1
43
0.0
10
152.391726445768
20
242.57358731651402
10
152.39172644576792
20
229.57358731651399
42
-0.41421356237309509
10
151.69172644576801
20
228.87358731651409
10
138.69172644576801
20
228.873587316514
42
-0.41421356237309509
10
137.99172644576802
20
229.57358731651399
10
137.99172644576805
20
242.57358731651402
42
-0.41421356237309509
10
138.69172644576801
20
243.27358731651398
10
151.69172644576801
20
243.27358731651401
42
-0.41421356237309509
0
LWPOLYLINE
5
124
100
AcDbEntity
8
0
100
AcDbPolyline
90
8
70
1
43
0.0
10
190.49172644576799
20
242.57358731651402
10
190.49172644576794
20
229.57358731651399
42
-0.41421356237309509
10
189.79172644576803
20
228.87358731651409
10
176.79172644576801
20
228.87358731651403
42
-0.41421356237309509
10
176.09172644576805
20
229.57358731651399
10
176.09172644576805
20
242.57358731651402
42
-0.41421356237309509
10
176.79172644576801
20
243.27358731651398
10
189.79172644576803
20
243.27358731651398
42
-0.41421356237309509
0
LWPOLYLINE
5
125
100
AcDbEntity
8
0
100
AcDbPolyline
90
8
70
1
43
0.0
10
171.44172644576801
20
242.57358731651402
10
171.44172644576784
20
229.57358731651399
42
-0.41421356237309509
10
170.74172644576802
20
228.87358731651418
10
157.74172644576799
20
228.873587316514
42
-0.41421356237309509
10
157.04172644576801
20
229.57358731651399
10
157.04172644576803
20
242.57358731651402
42
-0.41421356237309509
10
157.74172644576799
20
243.27358731651398
10
170.74172644576802
20
243.27358731651401
42
-0.41421356237309509
0
LWPOLYLINE
5
126
100
AcDbEntity
8
0
100
AcDbPolyline
90
8
70
1
43
0.0
10
209.54172644576801
20
242.57358731651402
10
209.54172644576789
20
229.57358731651399
42
-0.41421356237309509
10
208.84172644576802
20
228.87358731651409
10
195.84172644576799
20
228.87358731651403
42
-0.41421356237309509
10
195.14172644576803
20
229.57358731651399
10
195.14172644576803
20
242.57358731651402
42
-0.41421356237309509
10
195.84172644576799
20
243.27358731651398
10
208.84172644576802
20
243.27358731651401
42
-0.41421356237309509
0
LWPOLYLINE
5
127
100
AcDbEntity
8
0
100
AcDbPolyline
90
8
70
1
43
0.0
10
157.15422644576799
20
223.52358731651404
10
157.15422644576807
20
210.52358731651401
42
-0.41421356237309509
10
156.454226445768
20
209.82358731651397
10
143.454226445768
20
209.82358731651405
42
-0.41421356237309509
10
142.75422644576804
20
210.52358731651401
10
142.75422644576804
20
223.52358731651404
42
-0.41421356237309509
10
143.454226445768
20
224.223587316514
10
156.454226445768
20
224.223587316514
42
-0.41421356237309509
0
LWPOLYLINE
5
128
100
AcDbEntity
8
0
100
AcDbPolyline
90
8
70
1
43
0.0
10
202.39797644576799
20
223.52358731651404
10
202.39797644576808
20
210.52358731651401
42
-0.41421356237309509
10
201.69797644576803
20
209.82358731651399
10
188.69797644576803
20
209.82358731651405
42
-0.41421356237309509
10
187.99797644576807
20
210.52358731651401
10
187.9979764457681
20
223.52358731651404
42
-0.41421356237309509
10
188.69797644576803
20
224.22358731651397
10
201.69797644576803
20
224.223587316514
42
-0.41421356237309509
0
LWPOLYLINE
5
129
100
AcDbEntity
8
0
100
AcDbPolyline
90
8
70
1
43
0.0
10
176.20422644576803
20
223.52358731651404
10
176.20422644576806
20
210.52358731651401
42
-0.41421356237309509
10
175.50422644576801
20
209.82358731651399
10
162.50422644576801
20
209.82358731651414
42
-0.41421356237309509
10
161.80422644576811
20
210.52358731651401
10
161.80422644576808
20
223.52358731651404
42
-0.41421356237309509
10
162.50422644576801
20
224.22358731651397
10
175.50422644576801
20
224.22358731651403
42
-0.41421356237309509
0
LWPOLYLINE
5
130
100
AcDbEntity
8
0
100
AcDbPolyline
90
8
70
1
43
0.0
10
138.10422644576801
20
223.52358731651404
10
138.10422644576806
20
210.52358731651401
42
-0.41421356237309509
10
137.40422644576799
20
209.82358731651397
10
124.404226445768
20
209.82358731651399
42
-0.41421356237309509
10
123.70422644576797
20
210.52358731651401
10
123.70422644576804
20
223.52358731651404
42
-0.41421356237309509
10
124.404226445768
20
224.223587316514
10
137.40422644576799
20
224.22358731651406
42
-0.41421356237309509
0
LWPOLYLINE
5
131
100
AcDbEntity
8
0
100
AcDbPolyline
90
8
70
1
43
0.0
10
80.954226445767802
20
223.52358731651404
10
80.954226445767844
20
210.52358731651401
42
-0.41421356237309509
10
80.254226445767799
20
209.82358731651399
10
67.254226445767799
20
209.82358731651405
42
-0.41421356237309509
10
66.554226445767839
20
210.52358731651401
10
66.554226445767839
20
223.52358731651404
42
-0.41421356237309509
10
67.254226445767799
20
224.223587316514
10
80.254226445767799
20
224.22358731651403
42
-0.41421356237309509
0
LWPOLYLINE
5
132
100
AcDbEntity
8
0
100
AcDbPolyline
90
8
70
1
43
0.0
10
119.05422644576801
20
223.52358731651404
10
119.05422644576805
20
210.52358731651401
42
-0.41421356237309509
10
118.35422644576802
20
209.82358731651399
10
105.35422644576801
20
209.82358731651405
42
-0.41421356237309509
10
104.65422644576805
20
210.52358731651401
10
104.65422644576805
20
223.52358731651404
42
-0.41421356237309509
10
105.35422644576801
20
224.223587316514
10
118.35422644576802
20
224.223587316514
42
-0.41421356237309509
0
LWPOLYLINE
5
133
100
AcDbEntity
8
0
100
AcDbPolyline
90
8
70
1
43
0.0
10
100.00422644576801
20
223.52358731651404
10
100.00422644576794
20
210.52358731651401
42
-0.41421356237305046
10
99.304226445768009
20
209.82358731651399
10
86.30422644576781
20
209.82358731651402
42
-0.41421356237309509
10
85.604226445767807
20
210.52358731651401
10
85.604226445767836
20
223.52358731651404
42
-0.41421356237309509
10
86.30422644576781
20
224.223587316514
10
99.30422644576791
20
224.22358731651414
42
-0.41421356237309509
0
LWPOLYLINE
5
134
100
AcDbEntity
8
0
100
AcDbPolyline
90
8
70
1
43
0.0
10
61.904226445767804
20
223.52358731651404
10
61.904226445767812
20
210.52358731651401
42
-0.41421356237309509
10
61.204226445767809
20
209.82358731651402
10
48.204226445767802
20
209.82358731651405
42
-0.41421356237309509
10
47.504226445767834
20
210.52358731651401
10
47.504226445767735
20
223.52358731651404
42
-0.41421356237313595
10
48.204226445767802
20
224.223587316514
10
61.204226445767809
20
224.22358731651403
42
-0.41421356237309509
0
LWPOLYLINE
5
135
100
AcDbEntity
8
0
100
AcDbPolyline
90
8
70
1
43
0.0
10
171.32922644576803
20
191.473587316514
10
171.32922644576794
20
204.47358731651403
42
-0.41421356237309509
10
172.02922644576799
20
205.17358731651404
10
185.02922644576799
20
205.17358731651399
42
-0.41421356237309509
10
185.72922644576795
20
204.47358731651403
10
185.72922644576789
20
191.473587316514
42
-0.41421356237309509
10
185.02922644576799
20
190.77358731651412
10
172.02922644576799
20
190.77358731651404
42
-0.41421356237309509
0
LWPOLYLINE
5
136
100
AcDbEntity
8
0
100
AcDbPolyline
90
8
70
1
43
0.0
10
133.22922644576801
20
191.473587316514
10
133.22922644576803
20
204.47358731651403
42
-0.41421356237309509
10
133.92922644576799
20
205.17358731651399
10
146.92922644576799
20
205.17358731651402
42
-0.41421356237309509
10
147.62922644576801
20
204.47358731651403
10
147.62922644576798
20
191.473587316514
42
-0.41421356237309509
10
146.92922644576799
20
190.77358731651404
10
133.92922644576799
20
190.77358731651401
42
-0.41421356237309509
0
LWPOLYLINE
5
137
100
AcDbEntity
8
0
100
AcDbPolyline
90
8
70
1
43
0.0
10
95.129226445767813
20
191.473587316514
10
95.129226445767813
20
204.47358731651403
42
-0.41421356237309509
10
95.829226445767816
20
205.17358731651402
10
108.82922644576801
20
205.17358731651404
42
-0.41421356237309509
10
109.52922644576805
20
204.47358731651403
10
109.52922644576799
20
191.473587316514
42
-0.41421356237309509
10
108.82922644576801
20
190.77358731651404
10
95.829226445767816
20
190.77358731651401
42
-0.41421356237309509
0
LWPOLYLINE
5
138
100
AcDbEntity
8
0
100
AcDbPolyline
90
8
70
1
43
0.0
10
57.029226445767804
20
191.473587316514
10
57.029226445767804
20
204.47358731651403
42
-0.41421356237309509
10
57.729226445767807
20
205.17358731651402
10
70.729226445767793
20
205.17358731651402
42
-0.41421356237309509
10
71.429226445767796
20
204.47358731651403
10
71.429226445767767
20
191.473587316514
42
-0.41421356237309509
10
70.729226445767793
20
190.77358731651404
10
57.729226445767807
20
190.77358731651401
42
-0.41421356237309509
0
LWPOLYLINE
5
139
100
AcDbEntity
8
0
100
AcDbPolyline
90
8
70
1
43
0.0
10
76.079226445767802
20
191.473587316514
10
76.079226445767844
20
204.47358731651403
42
-0.41421356237309509
10
76.779226445767804
20
205.17358731651399
10
89.779226445767804
20
205.17358731651402
42
-0.41421356237309509
10
90.479226445767807
20
204.47358731651403
10
90.479226445767779
20
191.473587316514
42
-0.41421356237309509
10
89.779226445767804
20
190.77358731651404
10
76.779226445767804
20
190.77358731651401
42
-0.41421356237309509
0
LWPOLYLINE
5
140
100
AcDbEntity
8
0
100
AcDbPolyline
90
8
70
1
43
0.0
10
114.17922644576799
20
191.473587316514
10
114.17922644576804
20
204.47358731651403
42
-0.41421356237309509
10
114.879226445768
20
205.17358731651399
10
127.87922644576801
20
205.17358731651399
42
-0.41421356237309509
10
128.57922644576797
20
204.47358731651403
10
128.57922644576797
20
191.473587316514
42
-0.41421356237309509
10
127.87922644576801
20
190.77358731651404
10
114.879226445768
20
190.77358731651401
42
-0.41421356237309509
0
LWPOLYLINE
5
141
100
AcDbEntity
8
0
100
AcDbPolyline
90
8
70
1
43
0.0
10
152.27922644576802
20
191.473587316514
10
152.27922644576805
20
204.47358731651403
42
-0.41421356237309509
10
152.97922644576801
20
205.17358731651399
10
165.97922644576801
20
205.17358731651399
42
-0.41421356237309509
10
166.67922644576799
20
204.47358731651403
10
166.67922644576794
20
191.473587316514
42
-0.41421356237309509
10
165.97922644576801
20
190.77358731651407
10
152.97922644576801
20
190.77358731651401
42
-0.41421356237309509
0
LWPOLYLINE
5
142
100
AcDbEntity
8
0
100
AcDbPolyline
90
8
70
1
43
0.0
10
192.76047644576803
20
191.473587316514
10
192.76047644576803
20
204.47358731651403
42
-0.41421356237309509
10
193.46047644576799
20
205.17358731651399
10
206.46047644576799
20
205.17358731651385
42
-0.41421356237309509
10
207.16047644576781
20
204.47358731651403
10
207.16047644576793
20
191.473587316514
42
-0.41421356237309509
10
206.46047644576799
20
190.77358731651407
10
193.46047644576799
20
190.77358731651404
42
-0.41421356237309509
0
LWPOLYLINE
5
143
100
AcDbEntity
8
0
100
AcDbPolyline
90
76
70
1
43
0.0
10
116.56047644576805
20
172.42358731651399
42
0.41421356237309509
10
116.26047644576801
20
172.72358731651406
10
114.59172644576802
20
172.723587316514
42
0.41421356237309509
10
114.29172644576809
20
172.42358731651399
42
-0.41421356237309509
10
113.59172644576802
20
171.72358731651394
10
100.59172644576802
20
171.72358731651397
42
-0.41421356237309509
10
99.891726445767972
20
172.42358731651399
42
0.41421356237318174
10
99.591726445767819
20
172.72358731651408
10
97.922976445767802
20
172.723587316514
42
0.41421356237309509
10
97.622976445767776
20
172.42358731651399
42
-0.41421356237309509
10
96.922976445767816
20
171.72358731651403
10
52.930832246767807
20
171.723587316514
42
-0.41421356237305407
10
52.230832246767903
20
172.42358731651399
10
52.230832246767875
20
185.42358731651402
42
-0.41421356237309509
10
52.930832246767807
20
186.12358731651395
10
55.466726445767804
20
186.123587316514
42
0.41421356237309509
10
55.766726445767816
20
186.42358731651399
10
55.766726445767787
20
187.42358731651399
42
-0.41421356237309509
10
56.466726445767897
20
188.12358731651412
10
62.466726445767904
20
188.12358731651398
42
-0.41421356237309509
10
63.166726445767871
20
187.42358731651399
10
63.1667264457678
20
186.42358731651399
42
0.41421356237309509
10
63.466726445767804
20
186.12358731651403
10
64.959976445767893
20
186.123587316514
42
0.41421356237309509
10
65.259976445767904
20
186.42358731651399
10
65.259976445767933
20
187.42358731651399
42
-0.41421356237309509
10
65.959976445767893
20
188.12358731651398
10
79.103726445767805
20
188.123587316514
42
-0.41421356237309509
10
79.803726445767808
20
187.42358731651399
10
79.803726445767794
20
186.42358731651399
42
0.41421356237309509
10
80.103726445767819
20
186.12358731651403
10
84.041726445767807
20
186.123587316514
42
0.41421356237309509
10
84.341726445767819
20
186.42358731651399
10
84.341726445767762
20
187.42358731651399
42
-0.41421356237309509
10
85.041726445767807
20
188.12358731651403
10
102.97972644576801
20
188.12358731651392
42
-0.41421356237309509
10
103.67972644576794
20
187.42358731651399
10
103.67972644576801
20
186.42358731651399
42
0.41421356237309509
10
103.97972644576799
20
186.12358731651403
10
110.20372644576801
20
186.123587316514
42
0.41421356237309509
10
110.50372644576798
20
186.42358731651399
10
110.503726445768
20
187.42358731651399
42
-0.41421356237309509
10
111.20372644576801
20
188.123587316514
10
119.61672644576801
20
188.12358731651398
42
-0.41421356237309509
10
120.31672644576798
20
187.42358731651399
10
120.31672644576801
20
186.42358731651399
42
0.41421356237309509
10
120.61672644576801
20
186.12358731651403
10
122.141726445768
20
186.123587316514
42
0.41421356237309509
10
122.44172644576794
20
186.42358731651399
10
122.4417264457679
20
187.42358731651399
42
-0.41421356237309509
10
123.141726445768
20
188.12358731651412
10
129.14172644576803
20
188.12358731651392
42
-0.41421356237309509
10
129.84172644576796
20
187.42358731651399
10
129.84172644576799
20
186.42358731651399
42
0.41421356237309509
10
130.141726445768
20
186.12358731651403
10
134.07972644576799
20
186.123587316514
42
0.41421356237309509
10
134.37972644576794
20
186.42358731651399
10
134.379726445768
20
187.42358731651399
42
-0.41421356237309509
10
135.07972644576799
20
188.123587316514
10
143.46097644576801
20
188.12358731651392
42
-0.41421356237309509
10
144.16097644576794
20
187.42358731651399
10
144.16097644576803
20
186.42358731651399
42
0.41421356237309509
10
144.46097644576804
20
186.12358731651398
10
150.71672644576802
20
186.123587316514
42
0.41421356237309509
10
151.01672644576792
20
186.42358731651399
10
151.01672644576786
20
187.42358731651399
42
-0.41421356237309509
10
151.71672644576799
20
188.12358731651415
10
157.71672644576799
20
188.12358731651398
42
-0.41421356237309509
10
158.41672644576795
20
187.42358731651399
10
158.41672644576801
20
186.42358731651399
42
0.41421356237309509
10
158.71672644576799
20
186.12358731651409
10
161.18083224676803
20
186.12358731651395
42
-0.41421356237309509
10
161.88083224676797
20
185.42358731651402
10
161.88083224676797
20
172.42358731651399
42
-0.41421356237309509
10
161.18083224676803
20
171.72358731651406
10
117.26047644576802
20
171.72358731651403
42
-0.41421356237309509
0
CIRCLE
5
144
100
AcDbEntity
8
0
100
AcDbCircle
10
21.380769267682801
20
243.07358731706901
30
0
40
1.1637279597900001
210
0
220
0
230
1
0
CIRCLE
5
145
100
AcDbEntity
8
0
100
AcDbCircle
10
192.76615970948299
20
243.07358731706901
30
0
40
1.1637279597900001
210
0
220
0
230
1
0
CIRCLE
5
146
100
AcDbEntity
8
0
100
AcDbCircle
10
4.5948750598028401
20
190.74109361014902
30
0
40
1.1637279597900001
210
0
220
0
230
1
0
CIRCLE
5
147
100
AcDbEntity
8
0
100
AcDbCircle
10
209.552053917363
20
190.74109361014902
30
0
40
1.1637279597900001
210
0
220
0
230
1
0
ENDSEC
0
SECTION
2
OBJECTS
0
DICTIONARY
5
C
100
AcDbDictionary
3
ACAD_GROUP
350
D
3
ACAD_MLINESTYLE
350
17
0
DICTIONARY
5
D
100
AcDbDictionary
0
DICTIONARY
5
1A
330
C
100
AcDbDictionary
0
DICTIONARY
5
17
100
AcDbDictionary
0
ENDSEC
0
EOF
