0
SECTION
2
HEADER
9
$INSUNITS
70
4
9
$ACADVER
1
AC1014
9
$HANDSEED
5
FFFF
0
ENDSEC
0
SECTION
2
TABLES
0
TABLE
2
VPORT
5
8
100
AcDbSymbolTable
0
ENDTAB
0
TABLE
2
LTYPE
5
5
100
AcDbSymbolTable
0
LTYPE
5
14
100
AcDbSymbolTableRecord
100
AcDbLinetypeTableRecord
2
BYBLOCK
70
0
0
LTYPE
5
15
100
AcDbSymbolTableRecord
100
AcDbLinetypeTableRecord
2
BYLAYER
70
0
0
LTYPE
5
16
100
AcDbSymbolTableRecord
100
AcDbLinetypeTableRecord
2
DASHED
70
0
3
Dashed __ __ __ __ __ __ __ __ __ __ __ __ __ _
72
65
73
2
40
0.75
49
0.5
74
0
49
-0.25
74
0
0
ENDTAB
0
TABLE
2
LAYER
5
2
100
AcDbSymbolTable
70
3
0
LAYER
5
50
100
AcDbSymbolTableRecord
100
AcDbLayerTableRecord
2
1
70
0
62
7
6
DASHED
0
LAYER
5
51
100
AcDbSymbolTableRecord
100
AcDbLayerTableRecord
2
0
70
0
62
7
6
CONTINUOUS
0
ENDTAB
0
TABLE
2
STYLE
5
3
100
AcDbSymbolTable
70
1
0
STYLE
5
11
100
AcDbSymbolTableRecord
100
AcDbTextStyleTableRecord
2
STANDARD
70
0
0
ENDTAB
0
TABLE
2
VIEW
5
6
100
AcDbSymbolTable
70
0
0
ENDTAB
0
TABLE
2
UCS
5
7
100
AcDbSymbolTable
70
0
0
ENDTAB
0
TABLE
2
APPID
5
9
100
AcDbSymbolTable
70
2
0
APPID
5
12
100
AcDbSymbolTableRecord
100
AcDbRegAppTableRecord
2
ACAD
70
0
0
ENDTAB
0
TABLE
2
DIMSTYLE
5
A
100
AcDbSymbolTable
70
1
0
ENDTAB
0
TABLE
2
BLOCK_RECORD
5
1
100
AcDbSymbolTable
70
1
0
BLOCK_RECORD
5
1F
100
AcDbSymbolTableRecord
100
AcDbBlockTableRecord
2
*MODEL_SPACE
0
BLOCK_RECORD
5
1B
100
AcDbSymbolTableRecord
100
AcDbBlockTableRecord
2
*PAPER_SPACE
0
ENDTAB
0
ENDSEC
0
SECTION
2
BLOCKS
0
BLOCK
5
20
100
AcDbEntity
100
AcDbBlockBegin
2
*MODEL_SPACE
0
ENDBLK
5
21
100
AcDbEntity
100
AcDbBlockEnd
0
BLOCK
5
1C
100
AcDbEntity
100
AcDbBlockBegin
2
*PAPER_SPACE
0
ENDBLK
5
1D
100
AcDbEntity
100
AcDbBlockEnd
0
ENDSEC
0
SECTION
2
ENTITIES
0
LINE
5
100
100
AcDbEntity
8
0
100
AcDbLine
10
-49.363451885772804
20
-186.71993491974899
30
0
11
-49.363451885772804
21
-171.97711375954901
31
0
0
ARC
5
101
100
AcDbEntity
8
0
100
AcDbCircle
10
-52.463451885772798
20
-171.97711375954901
30
0
40
3.0999999999999961
210
0
220
0
230
1
100
AcDbArc
50
0
51
90
0
LINE
5
102
100
AcDbEntity
8
0
100
AcDbLine
10
-52.463451885772798
20
-168.87711375954905
30
0
11
-161.64821260776304
21
-168.87711375954899
31
0
0
ARC
5
103
100
AcDbEntity
8
0
100
AcDbCircle
10
-161.64821260776304
20
-171.97711375954901
30
0
40
3.1000000000000227
210
0
220
-0
230
1
100
AcDbArc
50
90
51
180
0
LINE
5
104
100
AcDbEntity
8
0
100
AcDbLine
10
-164.74821260776307
20
-171.97711375954901
30
0
11
-164.74821260776304
21
-186.71993491974899
31
0
0
ARC
5
105
100
AcDbEntity
8
0
100
AcDbCircle
10
-165.948212607763
20
-186.71993491974899
30
0
40
1.2000000000000099
210
0
220
0
230
1
100
AcDbArc
50
-90
51
0
0
LINE
5
106
100
AcDbEntity
8
0
100
AcDbLine
10
-165.948212607763
20
-187.91993491974898
30
0
11
-209.26993804832304
21
-187.91993491974904
31
0
0
SPLINE
5
107
100
AcDbEntity
8
0
100
AcDbSpline
70
0
71
3
72
8
73
4
74
0
42
0.000000001
43
0.0000000001
44
0.0000000001
40
-1
40
-1
40
-1
40
-1
40
0
40
0
40
0
40
0
10
-209.26993804832304
20
-187.91993491974904
30
0
10
-210.99789774619299
20
-187.91993491974904
30
0
10
-212.37321260776301
20
-189.295249781319
30
0
10
-212.37321260776301
20
-191.02320947918901
30
0
0
LINE
5
108
100
AcDbEntity
8
0
100
AcDbLine
10
-212.37321260776301
20
-191.02320947918901
30
0
11
-212.37321260776301
21
-243.07358731706901
31
0
0
SPLINE
5
109
100
AcDbEntity
8
0
100
AcDbSpline
70
0
71
3
72
8
73
4
74
0
42
0.000000001
43
0.0000000001
44
0.0000000001
40
-1
40
-1
40
-1
40
-1
40
0
40
0
40
0
40
0
10
-212.37321260776301
20
-243.07358731706901
30
0
10
-212.37321260776301
20
-244.80154701493902
30
0
10
-210.99789774619299
20
-246.17686187650904
30
0
10
-209.26993804832304
20
-246.17686187650904
30
0
0
LINE
5
110
100
AcDbEntity
8
0
100
AcDbLine
10
-209.26993804832304
20
-246.17686187650904
30
0
11
-4.841726445212835
21
-246.17686187650904
31
0
0
SPLINE
5
111
100
AcDbEntity
8
0
100
AcDbSpline
70
0
71
3
72
8
73
4
74
0
42
0.000000001
43
0.0000000001
44
0.0000000001
40
-1
40
-1
40
-1
40
-1
40
0
40
0
40
0
40
0
10
-4.8417264452128403
20
-246.17686187650904
30
0
10
-3.1137667473428405
20
-246.17686187650904
30
0
10
-1.7384518857728402
20
-244.80154701493902
30
0
10
-1.7384518857728402
20
-243.07358731706901
30
0
0
LINE
5
112
100
AcDbEntity
8
0
100
AcDbLine
10
-1.7384518857728404
20
-243.07358731706901
30
0
11
-1.7384518857728402
21
-191.02320947918901
31
0
0
SPLINE
5
113
100
AcDbEntity
8
0
100
AcDbSpline
70
0
71
3
72
8
73
4
74
0
42
0.000000001
43
0.0000000001
44
0.0000000001
40
-1
40
-1
40
-1
40
-1
40
0
40
0
40
0
40
0
10
-1.7384518857728402
20
-191.02320947918901
30
0
10
-1.7384518857728402
20
-189.295249781319
30
0
10
-3.1137667473428299
20
-187.91993491974904
30
0
10
-4.8417264452128403
20
-187.91993491974904
30
0
0
LINE
5
114
100
AcDbEntity
8
0
100
AcDbLine
10
-4.8417264452128403
20
-187.91993491974904
30
0
11
-48.163451885772801
21
-187.91993491974904
31
0
0
ARC
5
115
100
AcDbEntity
8
0
100
AcDbCircle
10
-48.163451885772801
20
-186.71993491974899
30
0
40
1.2000000000000011
210
0
220
0
230
1
100
AcDbArc
50
180
51
270
0
LWPOLYLINE
5
116
100
AcDbEntity
8
0
100
AcDbPolyline
90
8
70
1
43
0.0
10
-5.3417264457678506
20
-243.07358731651402
10
-18.341726445767801
20
-243.07358731651402
42
-0.41421356237309509
10
-18.841726445767801
20
-242.57358731651402
10
-18.841726445767701
20
-229.57358731651399
42
-0.41421356237309509
10
-18.341726445767801
20
-229.07358731651411
10
-5.3417264457678515
20
-229.07358731651399
42
-0.4142135623730957
10
-4.8417264457678506
20
-229.57358731651399
10
-4.8417264457678435
20
-242.57358731651402
42
-0.41421356237309509
0
LWPOLYLINE
5
117
100
AcDbEntity
8
0
100
AcDbPolyline
90
8
70
1
43
0.0
10
-43.441726445767799
20
-243.07358731651402
10
-56.441726445767806
20
-243.07358731651402
42
-0.41421356237309509
10
-56.941726445767813
20
-242.57358731651402
10
-56.941726445767706
20
-229.57358731651399
42
-0.41421356237309509
10
-56.441726445767806
20
-229.07358731651411
10
-43.441726445767799
20
-229.07358731651399
42
-0.41421356237309509
10
-42.941726445767813
20
-229.57358731651399
10
-42.941726445767792
20
-242.57358731651402
42
-0.41421356237309509
0
LWPOLYLINE
5
118
100
AcDbEntity
8
0
100
AcDbPolyline
90
8
70
1
43
0.0
10
-62.49172644576781
20
-243.07358731651402
10
-75.491726445767796
20
-243.07358731651402
42
-0.41421356237309509
10
-75.991726445767796
20
-242.57358731651402
10
-75.991726445767696
20
-229.57358731651399
42
-0.41421356237309509
10
-75.491726445767796
20
-229.07358731651411
10
-62.49172644576781
20
-229.07358731651399
42
-0.41421356237309509
10
-61.991726445767803
20
-229.57358731651399
10
-61.991726445767803
20
-242.57358731651402
42
-0.41421356237309509
0
LWPOLYLINE
5
119
100
AcDbEntity
8
0
100
AcDbPolyline
90
8
70
1
43
0.0
10
-81.541726445767807
20
-243.07358731651402
10
-94.541726445767793
20
-243.07358731651397
42
-0.41421356237309509
10
-95.041726445767779
20
-242.57358731651402
10
-95.041726445767694
20
-229.57358731651399
42
-0.41421356237309509
10
-94.541726445767793
20
-229.07358731651411
10
-81.541726445767807
20
-229.07358731651399
42
-0.41421356237309509
10
-81.041726445767793
20
-229.57358731651399
10
-81.041726445767793
20
-242.57358731651402
42
-0.41421356237309509
0
LWPOLYLINE
5
120
100
AcDbEntity
8
0
100
AcDbPolyline
90
8
70
1
43
0.0
10
-100.59172644576802
20
-243.07358731651402
10
-113.59172644576802
20
-243.07358731651402
42
-0.41421356237309509
10
-114.09172644576802
20
-242.57358731651402
10
-114.09172644576792
20
-229.57358731651399
42
-0.41421356237309509
10
-113.59172644576802
20
-229.07358731651411
10
-100.59172644576802
20
-229.07358731651399
42
-0.41421356237309509
10
-100.091726445768
20
-229.57358731651399
10
-100.091726445768
20
-242.57358731651402
42
-0.41421356237309509
0
LWPOLYLINE
5
121
100
AcDbEntity
8
0
100
AcDbPolyline
90
8
70
1
43
0.0
10
-119.641726445768
20
-243.07358731651402
10
-132.641726445768
20
-243.07358731651397
42
-0.41421356237309509
10
-133.141726445768
20
-242.57358731651402
10
-133.14172644576792
20
-229.57358731651399
42
-0.41421356237309509
10
-132.641726445768
20
-229.07358731651411
10
-119.641726445768
20
-229.07358731651399
42
-0.41421356237309509
10
-119.141726445768
20
-229.57358731651399
10
-119.141726445768
20
-242.57358731651402
42
-0.41421356237309509
0
LWPOLYLINE
5
122
100
AcDbEntity
8
0
100
AcDbPolyline
90
8
70
1
43
0.0
10
-138.69172644576801
20
-243.07358731651402
10
-151.69172644576801
20
-243.07358731651397
42
-0.41421356237309509
10
-152.19172644576801
20
-242.57358731651402
10
-152.19172644576793
20
-229.57358731651399
42
-0.41421356237309509
10
-151.69172644576801
20
-229.07358731651411
10
-138.69172644576801
20
-229.07358731651399
42
-0.41421356237309509
10
-138.19172644576801
20
-229.57358731651399
10
-138.19172644576801
20
-242.57358731651402
42
-0.41421356237309509
0
LWPOLYLINE
5
123
100
AcDbEntity
8
0
100
AcDbPolyline
90
8
70
1
43
0.0
10
-157.74172644576799
20
-243.07358731651402
10
-170.74172644576802
20
-243.07358731651402
42
-0.41421356237309509
10
-171.24172644576802
20
-242.57358731651402
10
-171.24172644576791
20
-229.57358731651399
42
-0.41421356237309509
10
-170.74172644576802
20
-229.07358731651411
10
-157.74172644576799
20
-229.07358731651399
42
-0.41421356237309509
10
-157.24172644576802
20
-229.57358731651399
10
-157.24172644576799
20
-242.57358731651402
42
-0.41421356237309509
0
LWPOLYLINE
5
124
100
AcDbEntity
8
0
100
AcDbPolyline
90
8
70
1
43
0.0
10
-176.79172644576801
20
-243.07358731651402
10
-189.79172644576803
20
-243.07358731651402
42
-0.41421356237309509
10
-190.29172644576803
20
-242.57358731651402
10
-190.29172644576792
20
-229.57358731651399
42
-0.41421356237309509
10
-189.79172644576803
20
-229.07358731651411
10
-176.79172644576801
20
-229.07358731651399
42
-0.41421356237309509
10
-176.29172644576801
20
-229.57358731651399
10
-176.29172644576801
20
-242.57358731651402
42
-0.41421356237309509
0
LWPOLYLINE
5
125
100
AcDbEntity
8
0
100
AcDbPolyline
90
8
70
1
43
0.0
10
-195.84172644576799
20
-243.07358731651402
10
-208.84172644576802
20
-243.07358731651391
42
-0.41421356237309509
10
-209.3417264457679
20
-242.57358731651402
10
-209.3417264457679
20
-229.57358731651399
42
-0.41421356237309509
10
-208.84172644576802
20
-229.07358731651411
10
-195.84172644576799
20
-229.07358731651402
42
-0.41421356237309509
10
-195.34172644576802
20
-229.57358731651399
10
-195.34172644576799
20
-242.57358731651402
42
-0.41421356237309509
0
LWPOLYLINE
5
126
100
AcDbEntity
8
0
100
AcDbPolyline
90
8
70
1
43
0.0
10
-48.204226445767802
20
-224.02358731651404
10
-61.204226445767809
20
-224.02358731651404
42
-0.41421356237309509
10
-61.704226445767816
20
-223.52358731651404
10
-61.704226445767816
20
-210.52358731651401
42
-0.41421356237309509
10
-61.204226445767809
20
-210.02358731651401
10
-48.204226445767802
20
-210.02358731651401
42
-0.41421356237309509
10
-47.704226445767802
20
-210.52358731651401
10
-47.704226445767794
20
-223.52358731651404
42
-0.41421356237309509
0
LWPOLYLINE
5
127
100
AcDbEntity
8
0
100
AcDbPolyline
90
8
70
1
43
0.0
10
-67.254226445767799
20
-224.02358731651404
10
-80.254226445767799
20
-224.02358731651404
42
-0.41421356237309509
10
-80.754226445767813
20
-223.52358731651404
10
-80.754226445767813
20
-210.52358731651401
42
-0.41421356237309509
10
-80.254226445767799
20
-210.02358731651401
10
-67.254226445767799
20
-210.02358731651401
42
-0.41421356237309509
10
-66.754226445767799
20
-210.52358731651401
10
-66.754226445767799
20
-223.52358731651404
42
-0.41421356237309509
0
LWPOLYLINE
5
128
100
AcDbEntity
8
0
100
AcDbPolyline
90
8
70
1
43
0.0
10
-86.30422644576781
20
-224.02358731651404
10
-99.30422644576791
20
-224.02358731651404
42
-0.41421356237309509
10
-99.804226445767895
20
-223.52358731651404
10
-99.80422644576791
20
-210.52358731651401
42
-0.41421356237309509
10
-99.30422644576791
20
-210.02358731651401
10
-86.30422644576781
20
-210.02358731651401
42
-0.41421356237309509
10
-85.804226445767796
20
-210.52358731651401
10
-85.804226445767796
20
-223.52358731651404
42
-0.41421356237309509
0
LWPOLYLINE
5
129
100
AcDbEntity
8
0
100
AcDbPolyline
90
8
70
1
43
0.0
10
-105.35422644576801
20
-224.02358731651404
10
-118.35422644576802
20
-224.02358731651404
42
-0.41421356237309509
10
-118.85422644576803
20
-223.52358731651404
10
-118.85422644576803
20
-210.52358731651401
42
-0.41421356237309509
10
-118.35422644576802
20
-210.02358731651401
10
-105.35422644576801
20
-210.02358731651401
42
-0.41421356237309509
10
-104.85422644576801
20
-210.52358731651401
10
-104.85422644576801
20
-223.52358731651404
42
-0.41421356237309509
0
LWPOLYLINE
5
130
100
AcDbEntity
8
0
100
AcDbPolyline
90
8
70
1
43
0.0
10
-124.404226445768
20
-224.02358731651404
10
-137.40422644576799
20
-224.02358731651404
42
-0.41421356237309509
10
-137.90422644576799
20
-223.52358731651404
10
-137.90422644576802
20
-210.52358731651401
42
-0.41421356237309509
10
-137.40422644576799
20
-210.02358731651401
10
-124.404226445768
20
-210.02358731651401
42
-0.41421356237309509
10
-123.904226445768
20
-210.52358731651401
10
-123.904226445768
20
-223.52358731651404
42
-0.41421356237309509
0
LWPOLYLINE
5
131
100
AcDbEntity
8
0
100
AcDbPolyline
90
8
70
1
43
0.0
10
-143.454226445768
20
-224.02358731651404
10
-156.454226445768
20
-224.02358731651404
42
-0.41421356237309509
10
-156.954226445768
20
-223.52358731651404
10
-156.95422644576803
20
-210.52358731651401
42
-0.41421356237309509
10
-156.454226445768
20
-210.02358731651401
10
-143.454226445768
20
-210.02358731651407
42
-0.41421356237309509
10
-142.954226445768
20
-210.52358731651401
10
-142.954226445768
20
-223.52358731651404
42
-0.41421356237309509
0
LWPOLYLINE
5
132
100
AcDbEntity
8
0
100
AcDbPolyline
90
8
70
1
43
0.0
10
-162.50422644576801
20
-224.02358731651404
10
-175.50422644576801
20
-224.02358731651404
42
-0.41421356237309509
10
-176.00422644576804
20
-223.52358731651404
10
-176.00422644576804
20
-210.52358731651401
42
-0.41421356237309509
10
-175.50422644576801
20
-210.02358731651401
10
-162.50422644576801
20
-210.02358731651401
42
-0.41421356237309509
10
-162.00422644576801
20
-210.52358731651401
10
-162.00422644576801
20
-223.52358731651404
42
-0.41421356237309509
0
LWPOLYLINE
5
133
100
AcDbEntity
8
0
100
AcDbPolyline
90
8
70
1
43
0.0
10
-188.69797644576803
20
-224.02358731651404
10
-201.69797644576803
20
-224.02358731651401
42
-0.41421356237309509
10
-202.19797644576801
20
-223.52358731651404
10
-202.19797644576803
20
-210.52358731651401
42
-0.41421356237309509
10
-201.69797644576803
20
-210.02358731651401
10
-188.69797644576803
20
-210.02358731651401
42
-0.41421356237309509
10
-188.19797644576801
20
-210.52358731651401
10
-188.19797644576801
20
-223.52358731651404
42
-0.41421356237309509
0
LWPOLYLINE
5
134
100
AcDbEntity
8
0
100
AcDbPolyline
90
8
70
1
43
0.0
10
-57.729226445767807
20
-204.97358731651403
10
-70.729226445767793
20
-204.97358731651403
42
-0.41421356237309509
10
-71.229226445767793
20
-204.47358731651403
10
-71.229226445767765
20
-191.473587316514
42
-0.41421356237309509
10
-70.729226445767793
20
-190.97358731651406
10
-57.729226445767807
20
-190.973587316514
42
-0.41421356237309509
10
-57.229226445767807
20
-191.473587316514
10
-57.2292264457678
20
-204.47358731651403
42
-0.41421356237309509
0
LWPOLYLINE
5
135
100
AcDbEntity
8
0
100
AcDbPolyline
90
8
70
1
43
0.0
10
-76.779226445767804
20
-204.97358731651403
10
-89.779226445767804
20
-204.97358731651403
42
-0.41421356237309509
10
-90.279226445767819
20
-204.47358731651403
10
-90.279226445767776
20
-191.473587316514
42
-0.41421356237309509
10
-89.779226445767804
20
-190.97358731651406
10
-76.779226445767804
20
-190.973587316514
42
-0.41421356237309509
10
-76.279226445767804
20
-191.473587316514
10
-76.279226445767804
20
-204.47358731651403
42
-0.41421356237309509
0
LWPOLYLINE
5
136
100
AcDbEntity
8
0
100
AcDbPolyline
90
8
70
1
43
0.0
10
-95.829226445767816
20
-204.97358731651403
10
-108.82922644576801
20
-204.97358731651403
42
-0.41421356237309509
10
-109.32922644576803
20
-204.47358731651403
10
-109.32922644576799
20
-191.473587316514
42
-0.41421356237309509
10
-108.82922644576801
20
-190.97358731651406
10
-95.829226445767816
20
-190.973587316514
42
-0.41421356237309509
10
-95.329226445767802
20
-191.473587316514
10
-95.329226445767802
20
-204.47358731651403
42
-0.41421356237309509
0
LWPOLYLINE
5
137
100
AcDbEntity
8
0
100
AcDbPolyline
90
8
70
1
43
0.0
10
-114.879226445768
20
-204.97358731651403
10
-127.87922644576801
20
-204.97358731651403
42
-0.41421356237309509
10
-128.37922644576801
20
-204.47358731651403
10
-128.37922644576798
20
-191.473587316514
42
-0.41421356237309509
10
-127.87922644576801
20
-190.97358731651406
10
-114.879226445768
20
-190.973587316514
42
-0.41421356237309509
10
-114.379226445768
20
-191.473587316514
10
-114.379226445768
20
-204.47358731651403
42
-0.41421356237309509
0
LWPOLYLINE
5
138
100
AcDbEntity
8
0
100
AcDbPolyline
90
8
70
1
43
0.0
10
-133.92922644576799
20
-204.97358731651403
10
-146.92922644576799
20
-204.97358731651403
42
-0.41421356237309509
10
-147.42922644576799
20
-204.47358731651403
10
-147.42922644576797
20
-191.473587316514
42
-0.41421356237309509
10
-146.92922644576799
20
-190.97358731651406
10
-133.92922644576799
20
-190.97358731651406
42
-0.41421356237309509
10
-133.42922644576799
20
-191.473587316514
10
-133.42922644576799
20
-204.47358731651403
42
-0.41421356237309509
0
LWPOLYLINE
5
139
100
AcDbEntity
8
0
100
AcDbPolyline
90
8
70
1
43
0.0
10
-152.97922644576801
20
-204.97358731651403
10
-165.97922644576801
20
-204.97358731651403
42
-0.41421356237309509
10
-166.47922644576801
20
-204.47358731651403
10
-166.47922644576798
20
-191.473587316514
42
-0.41421356237309509
10
-165.97922644576801
20
-190.97358731651406
10
-152.97922644576801
20
-190.97358731651406
42
-0.41421356237309509
10
-152.47922644576801
20
-191.473587316514
10
-152.47922644576801
20
-204.47358731651403
42
-0.41421356237309509
0
LWPOLYLINE
5
140
100
AcDbEntity
8
0
100
AcDbPolyline
90
8
70
1
43
0.0
10
-172.02922644576799
20
-204.97358731651403
10
-185.02922644576799
20
-204.97358731651403
42
-0.41421356237309509
10
-185.52922644576799
20
-204.47358731651403
10
-185.52922644576796
20
-191.473587316514
42
-0.41421356237309509
10
-185.02922644576799
20
-190.97358731651406
10
-172.02922644576799
20
-190.97358731651397
42
-0.41421356237309509
10
-171.52922644576793
20
-191.473587316514
10
-171.52922644576796
20
-204.47358731651403
42
-0.41421356237309509
0
LWPOLYLINE
5
141
100
AcDbEntity
8
0
100
AcDbPolyline
90
8
70
1
43
0.0
10
-193.46047644576799
20
-204.97358731651403
10
-206.46047644576799
20
-204.97358731651391
42
-0.41421356237309509
10
-206.96047644576791
20
-204.47358731651403
10
-206.96047644576797
20
-191.473587316514
42
-0.41421356237309509
10
-206.46047644576799
20
-190.97358731651406
10
-193.46047644576799
20
-190.973587316514
42
-0.41421356237309509
10
-192.96047644576799
20
-191.473587316514
10
-192.96047644576799
20
-204.47358731651403
42
-0.41421356237309509
0
LWPOLYLINE
5
142
100
AcDbEntity
8
0
100
AcDbPolyline
90
47
70
1
43
0.0
10
-42.654226445767797
20
-223.52358731651404
10
-42.654226445767797
20
-205.473587316514
42
0.41421356237309509
10
-43.154226445767804
20
-204.97358731651403
10
-51.679226445767803
20
-204.97358731651403
42
-0.41421356237309509
10
-52.17922644576781
20
-204.47358731651403
10
-52.179226445767775
20
-191.473587316514
42
-0.41421356237309509
10
-51.679226445767803
20
-190.97358731651406
10
-38.679226445767902
20
-190.973587316514
42
-0.41421356237309509
10
-38.179226445767902
20
-191.473587316514
10
-38.17922644576781
20
-204.47358731651403
42
0.41421356237309509
10
-37.679226445767803
20
-204.97358731651403
10
-26.485476445767905
20
-204.97358731651403
42
0.41421356237309509
10
-25.98547644576804
20
-204.47358731651403
10
-25.985476445767777
20
-191.473587316514
42
-0.41421356237309509
10
-25.485476445767805
20
-190.97358731651406
10
-12.4854764457678
20
-190.973587316514
42
-0.41421356237309509
10
-11.9854764457678
20
-191.473587316514
10
-11.985476445767935
20
-204.47358731651403
42
-0.41421356237309509
10
-12.4854764457678
20
-204.97358731651389
10
-13.685476445767801
20
-204.97358731651403
42
0.41421356237309509
10
-14.185476445767808
20
-205.473587316514
10
-14.185476445767801
20
-209.52358731651401
42
0.41421356237309509
10
-13.685476445767801
20
-210.02358731651401
10
-7.7229764457678396
20
-210.02358731651401
42
-0.41421356237309509
10
-7.2229764457678405
20
-210.52358731651401
10
-7.222976445767868
20
-223.52358731651404
42
-0.41421356237309509
10
-7.7229764457678396
20
-224.02358731651401
10
-20.722976445767905
20
-224.02358731651404
42
-0.41421356237309509
10
-21.222976445767895
20
-223.52358731651404
10
-21.222976445767799
20
-210.52358731651401
42
0.41421356237309509
10
-21.722976445767902
20
-210.02358731651401
10
-28.1542264457679
20
-210.02358731651401
42
0.41421356237309509
10
-28.654226445767907
20
-210.52358731651401
10
-28.654226445767904
20
-228.57358731651402
42
0.41421356237315227
10
-28.154226445767804
20
-229.07358731651402
10
-24.391726445767805
20
-229.07358731651399
42
-0.41421356237309509
10
-23.891726445767816
20
-229.57358731651399
10
-23.891726445767691
20
-242.57358731651402
42
-0.41421356237309509
10
-24.391726445767805
20
-243.07358731651414
10
-37.391726445767901
20
-243.07358731651402
42
-0.41421356237309509
10
-37.891726445767901
20
-242.57358731651402
10
-37.891726445767908
20
-229.57358731651399
42
-0.41421356237309509
10
-37.391726445767901
20
-229.07358731651399
42
0.41421356237309509
10
-36.891726445768001
20
-228.57358731651402
10
-36.891726445767802
20
-224.52358731651401
42
0.41421356237309509
10
-37.391726445767901
20
-224.02358731651401
10
-42.154226445767897
20
-224.02358731651393
42
-0.41421356237309509
0
LWPOLYLINE
5
143
100
AcDbEntity
8
0
100
AcDbPolyline
90
76
70
1
43
0.0
10
-55.466726445767804
20
-185.92358731651399
42
0.41421356237309509
10
-55.966726445767812
20
-186.42358731651399
10
-55.966726445767783
20
-187.42358731651399
42
-0.41421356237309509
10
-56.466726445767897
20
-187.9235873165141
10
-62.466726445767904
20
-187.92358731651399
42
-0.41421356237309509
10
-62.966726445767883
20
-187.42358731651399
10
-62.966726445767804
20
-186.42358731651399
42
0.41421356237309509
10
-63.466726445767804
20
-185.92358731651399
10
-64.959976445767893
20
-185.92358731651399
42
0.41421356237309509
10
-65.459976445767893
20
-186.42358731651399
10
-65.459976445767893
20
-187.42358731651399
42
-0.41421356237309509
10
-65.959976445767893
20
-187.92358731651402
10
-79.103726445767805
20
-187.92358731651402
42
-0.41421356237309509
10
-79.603726445767805
20
-187.42358731651399
10
-79.603726445767805
20
-186.42358731651399
42
0.41421356237309509
10
-80.103726445767819
20
-185.92358731651402
10
-84.041726445767807
20
-185.92358731651399
42
0.41421356237309509
10
-84.541726445767807
20
-186.42358731651399
10
-84.541726445767793
20
-187.42358731651399
42
-0.41421356237309509
10
-85.041726445767807
20
-187.92358731651402
10
-102.97972644576801
20
-187.92358731651402
42
-0.41421356237309509
10
-103.47972644576801
20
-187.42358731651399
10
-103.47972644576799
20
-186.42358731651399
42
0.41421356237309509
10
-103.97972644576799
20
-185.92358731651399
10
-110.20372644576801
20
-185.92358731651399
42
0.41421356237309509
10
-110.70372644576801
20
-186.42358731651399
10
-110.703726445768
20
-187.42358731651399
42
-0.41421356237309509
10
-111.20372644576801
20
-187.92358731651402
10
-119.61672644576801
20
-187.92358731651402
42
-0.41421356237309509
10
-120.11672644576802
20
-187.42358731651399
10
-120.11672644576799
20
-186.42358731651399
42
0.41421356237309509
10
-120.61672644576801
20
-185.92358731651402
10
-122.141726445768
20
-185.92358731651399
42
0.41421356237309509
10
-122.6417264457679
20
-186.42358731651399
10
-122.64172644576789
20
-187.42358731651399
42
-0.41421356237309509
10
-123.141726445768
20
-187.9235873165141
10
-129.14172644576803
20
-187.92358731651402
42
-0.41421356237309509
10
-129.64172644576803
20
-187.42358731651399
10
-129.641726445768
20
-186.42358731651399
42
0.41421356237309509
10
-130.141726445768
20
-185.92358731651399
10
-134.07972644576799
20
-185.92358731651399
42
0.41421356237309509
10
-134.5797264457679
20
-186.42358731651399
10
-134.57972644576799
20
-187.42358731651399
42
-0.41421356237309509
10
-135.07972644576799
20
-187.92358731651402
10
-143.46097644576801
20
-187.92358731651402
42
-0.41421356237309509
10
-143.96097644576801
20
-187.42358731651399
10
-143.96097644576801
20
-186.42358731651399
42
0.41421356237309509
10
-144.46097644576804
20
-185.92358731651402
10
-150.71672644576802
20
-185.92358731651399
42
0.41421356237309509
10
-151.2167264457679
20
-186.42358731651399
10
-151.21672644576788
20
-187.42358731651399
42
-0.41421356237309509
10
-151.71672644576799
20
-187.9235873165141
10
-157.71672644576799
20
-187.92358731651399
42
-0.41421356237309509
10
-158.21672644576799
20
-187.42358731651399
10
-158.21672644576802
20
-186.42358731651399
42
0.41421356237309509
10
-158.71672644576799
20
-185.92358731651399
10
-161.18083224676803
20
-185.92358731651399
42
-0.41421356237309509
10
-161.68083224676798
20
-185.42358731651402
10
-161.68083224676803
20
-172.42358731651399
42
-0.41421356237309509
10
-161.18083224676803
20
-171.92358731651399
10
-117.26047644576802
20
-171.92358731651404
42
-0.41421356237309509
10
-116.76047644576803
20
-172.42358731651399
42
0.41421356237309509
10
-116.26047644576801
20
-172.92358731651402
10
-114.59172644576802
20
-172.92358731651402
42
0.41421356237309509
10
-114.09172644576813
20
-172.42358731651399
42
-0.41421356237309509
10
-113.59172644576802
20
-171.92358731651387
10
-100.59172644576802
20
-171.92358731651399
42
-0.41421356237309509
10
-100.091726445768
20
-172.42358731651399
42
0.41421356237309509
10
-99.591726445767819
20
-172.92358731651399
10
-97.922976445767802
20
-172.92358731651402
42
0.41421356237309509
10
-97.422976445767816
20
-172.42358731651399
42
-0.41421356237309509
10
-96.922976445767816
20
-171.92358731651399
10
-52.930832246767807
20
-171.92358731651404
42
-0.41421356237309509
10
-52.430832246767835
20
-172.42358731651399
10
-52.430832246767835
20
-185.42358731651402
42
-0.41421356237309509
10
-52.930832246767807
20
-185.92358731651399
0
CIRCLE
5
144
100
AcDbEntity
8
0
100
AcDbCircle
10
-21.380769267682801
20
-243.07358731706901
30
0
40
1.1637279597900001
210
0
220
0
230
1
0
CIRCLE
5
145
100
AcDbEntity
8
0
100
AcDbCircle
10
-192.76615970948299
20
-243.07358731706901
30
0
40
1.1637279597900001
210
0
220
0
230
1
0
CIRCLE
5
146
100
AcDbEntity
8
0
100
AcDbCircle
10
-4.5948750598028401
20
-190.74109361014902
30
0
40
1.1637279597900001
210
0
220
0
230
1
0
CIRCLE
5
147
100
AcDbEntity
8
0
100
AcDbCircle
10
-209.552053917363
20
-190.74109361014902
30
0
40
1.1637279597900001
210
0
220
0
230
1
0
ENDSEC
0
SECTION
2
OBJECTS
0
DICTIONARY
5
C
100
AcDbDictionary
3
ACAD_GROUP
350
D
3
ACAD_MLINESTYLE
350
17
0
DICTIONARY
5
D
100
AcDbDictionary
0
DICTIONARY
5
1A
330
C
100
AcDbDictionary
0
DICTIONARY
5
17
100
AcDbDictionary
0
ENDSEC
0
EOF
